<svg width="24" height="24" viewBox="0 0 24 24" fill="none" xmlns="http://www.w3.org/2000/svg">
<path d="M19.0502 5.00995H15.9802C15.9202 3.32995 14.5502 2 12.8702 2H11.1102C9.43023 2 8.07023 3.34 8.00023 5H4.93022C4.40022 5.04 3.99023 5.47 3.99023 6C3.99023 6.53 4.44023 7 4.99023 7H5.04022L5.65022 18.2C5.65022 20.3 7.35023 22 9.45023 22H14.5302C16.6202 22 18.3302 20.29 18.3302 18.25L18.9402 7H18.9902C19.5402 7 19.9902 6.55 19.9902 6C19.9902 5.45 19.5702 5.03995 19.0502 5.00995V5.00995ZM11.1202 4H12.8802C13.4502 4 13.9102 4.44 13.9802 5H10.0302C10.0902 4.44 10.5502 4 11.1302 4H11.1202ZM16.3402 18.2C16.3402 19.19 15.5302 20 14.5402 20H9.46024C8.47024 20 7.66023 19.19 7.66023 18.15L7.06023 7H16.9502L16.3502 18.2H16.3402Z" fill="#FF0000"/>
<path d="M9.9707 8.97998C9.4207 8.97998 8.9707 9.42998 8.9707 9.97998V17.03C8.9707 17.58 9.4207 18.03 9.9707 18.03C10.5207 18.03 10.9707 17.58 10.9707 17.03V9.97998C10.9707 9.42998 10.5207 8.97998 9.9707 8.97998Z" fill="#FF0000"/>
<path d="M14.0098 8.97998C13.4598 8.97998 13.0098 9.42998 13.0098 9.97998V13C13.0098 13.55 13.4598 14 14.0098 14C14.5598 14 15.0098 13.55 15.0098 13V9.97998C15.0098 9.42998 14.5598 8.97998 14.0098 8.97998Z" fill="#FF0000"/>
</svg>
