<svg width="23" height="24" viewBox="0 0 23 24" fill="none" xmlns="http://www.w3.org/2000/svg">
<path d="M19.1667 6.71926C18.6875 6.71927 18.2083 6.71927 18.2083 6.71927C18.2083 6.71927 18.2083 6.71928 17.25 6.71927L11.5 6.71926C10.3355 6.69462 11.0687 6.71926 10.5417 6.71926C10.0146 6.71926 10.5417 6.71926 9.58333 6.71926C7.46542 6.71926 5.75 8.43468 5.75 10.5526V19.1776C5.75 21.2955 7.46542 23.0109 9.58333 23.0109H19.1667C21.2846 23.0109 23 21.2955 23 19.1776V10.5526C23 8.43468 21.2846 6.71926 19.1667 6.71926ZM21.0833 19.1776C21.0833 20.2318 20.2208 21.0943 19.1667 21.0943H9.58333C8.52917 21.0943 7.66667 20.2318 7.66667 19.1776V10.5526C7.66667 9.49843 8.52917 8.63593 9.58333 8.63593C10.5417 8.63593 10.0146 8.63593 10.5417 8.63593C11.0687 8.63593 10.5417 8.63593 11.5 8.63593H17.25C18.2083 8.63593 17.6812 8.63593 18.2083 8.63593C18.7354 8.63593 18.2083 8.63593 19.1667 8.63593C20.2208 8.63593 21.0833 9.49843 21.0833 10.5526V19.1776Z" fill="white"/>
<path d="M17.2503 7.1875C17.2503 5.96547 17.2503 5.35445 17.075 4.86433C16.7724 4.01861 16.1067 3.35297 15.261 3.05037C14.7709 2.875 14.1599 2.875 12.9378 2.875H7.91699C5.08857 2.875 3.67435 2.875 2.79567 3.75368C1.91699 4.63236 1.91699 6.04657 1.91699 8.875V12.65C1.91699 14.1418 1.91699 14.8877 2.17636 15.4702C2.47789 16.1475 3.01952 16.6891 3.69678 16.9906C4.27932 17.25 5.02521 17.25 6.51699 17.25" stroke="white" stroke-width="2.1"/>
</svg>
