<svg width="19" height="19" viewBox="0 0 19 19" fill="none" xmlns="http://www.w3.org/2000/svg">
<path d="M17.02 9.04785C16.47 9.04785 16.02 9.49785 16.02 10.0479V12.5978C16.02 14.4978 14.47 16.0479 12.57 16.0479H5.45001C3.55001 16.0479 2 14.4978 2 12.5978V5.47785C2 3.57785 3.55001 2.02784 5.45001 2.02784H9.98999C10.54 2.02784 10.99 1.57784 10.99 1.02784C10.99 0.477835 10.54 0.0278354 9.98999 0.0278354H5.45001C2.44001 0.0278354 0 2.47785 0 5.47785V12.5978C0 15.6078 2.45001 18.0479 5.45001 18.0479H12.57C15.58 18.0479 18.02 15.5978 18.02 12.5978V10.0479C18.02 9.49785 17.57 9.04785 17.02 9.04785Z" fill="white"/>
<path d="M17.9197 1.42787L17.5396 1.04786C16.9296 0.437864 16.4297 0.127845 15.9297 0.027845C15.3797 -0.072155 14.8797 0.097845 14.4497 0.527845L7.57969 7.43788C7.28969 7.72788 7.11963 8.11787 7.08963 8.55787L6.91965 10.7178C6.86965 11.0778 6.99965 11.4278 7.28965 11.7178C7.53965 11.9678 7.83968 12.0979 8.13968 12.0979C8.17968 12.0979 8.20967 12.0979 8.24967 12.0979L10.3897 11.9179C10.8497 11.8779 11.2597 11.6978 11.5597 11.3978L18.4497 4.49788C18.6497 4.29788 19.0997 3.83785 18.9897 3.09785C18.9097 2.58785 18.5897 2.08786 17.9197 1.41786V1.42787ZM10.1997 9.93788L8.97965 10.0379L9.07968 8.77784L15.7196 2.09785C15.8096 2.16785 15.9497 2.27785 16.1297 2.46785L16.5097 2.84785C16.6897 3.02785 16.8097 3.15783 16.8797 3.25783L10.1997 9.94783V9.93788Z" fill="white"/>
</svg>
