<svg width="24" height="24" viewBox="0 0 24 24" fill="none" xmlns="http://www.w3.org/2000/svg">
<path d="M17 4V3C17 2.45 16.55 2 16 2C15.45 2 15 2.45 15 3V4H9V3C9 2.45 8.55 2 8 2C7.45 2 7 2.45 7 3V4C4.79 4 3 5.79 3 8V17C3 19.21 4.79 21 7 21H17C19.21 21 21 19.21 21 17V8C21 5.79 19.21 4 17 4ZM19 17C19 18.1 18.1 19 17 19H7C5.9 19 5 18.1 5 17V8C5 6.9 5.9 6 7 6V7C7 7.55 7.45 8 8 8C8.55 8 9 7.55 9 7V6H15V7C15 7.55 15.45 8 16 8C16.55 8 17 7.55 17 7V6C18.1 6 19 6.9 19 8V17Z" fill="white"/>
<path d="M15 12H12.99V10C12.99 9.45 12.54 9 11.99 9C11.44 9 10.99 9.45 10.99 10V12H9C8.45 12 8 12.45 8 13C8 13.55 8.45 14 9 14H10.99V16C10.99 16.55 11.44 17 11.99 17C12.54 17 12.99 16.55 12.99 16V14H15C15.55 14 16 13.55 16 13C16 12.45 15.55 12 15 12Z" fill="white"/>
</svg>
