<svg width="18" height="19" viewBox="0 0 18 19" fill="none" xmlns="http://www.w3.org/2000/svg">
<path d="M14 2V1C14 0.450003 13.55 3.33458e-06 13 3.33458e-06C12.45 3.33458e-06 12 0.450003 12 1V2H6V1C6 0.450003 5.55 3.33458e-06 5 3.33458e-06C4.45 3.33458e-06 4 0.450003 4 1V2C1.79 2 1.90735e-06 3.79 1.90735e-06 6V15C1.90735e-06 17.21 1.79 19 4 19H14C16.21 19 18 17.21 18 15V6C18 3.79 16.21 2 14 2ZM16 15C16 16.1 15.1 17 14 17H4C2.9 17 2 16.1 2 15V6C2 4.9 2.9 4 4 4V5C4 5.55 4.45 6 5 6C5.55 6 6 5.55 6 5V4H12V5C12 5.55 12.45 6 13 6C13.55 6 14 5.55 14 5V4C15.1 4 16 4.9 16 6V15Z" fill="white"/>
<path d="M11.34 8.32998L8.18997 11.72L6.92996 10.39C6.54996 9.98998 5.91997 9.96997 5.51997 10.35C5.11997 10.73 5.09996 11.36 5.47996 11.76L7.16996 13.54C7.43996 13.82 7.80996 13.99 8.19996 13.99C8.58996 13.99 8.95996 13.82 9.22996 13.54L12.8 9.69C13.18 9.28 13.15 8.65 12.75 8.28C12.34 7.9 11.71 7.92998 11.34 8.32998V8.32998Z" fill="white"/>
</svg>
