<svg width="15" height="20" viewBox="0 0 15 20" fill="none" xmlns="http://www.w3.org/2000/svg">
<path fill-rule="evenodd" clip-rule="evenodd" d="M9.39051 0.408455C9.65762 0.523215 9.83099 0.78786 9.83099 1.08082V7.89956H13.6255C13.883 7.89956 14.1211 8.03756 14.2509 8.26201C14.3807 8.48645 14.3826 8.76357 14.2559 8.98982L13.7808 9.83834C11.979 13.0563 9.68124 15.9644 6.97361 18.4534L6.20553 19.1595C5.99354 19.3544 5.68757 19.4046 5.42527 19.2877C5.16296 19.1708 4.99375 18.9086 4.99375 18.6193V11.8583H1.07375C0.673817 11.8583 0.349609 11.5312 0.349609 11.1276C0.349609 10.9968 0.38362 10.8741 0.443199 10.768C2.14134 7.5999 4.31547 4.71632 6.8883 2.21979L8.60494 0.554061C8.81421 0.351006 9.12341 0.293695 9.39051 0.408455ZM2.31403 10.3968H5.71789C6.11782 10.3968 6.44202 10.724 6.44202 11.1276V16.9575C8.77723 14.7305 10.7788 12.1716 12.3832 9.3611H9.10685C8.70692 9.3611 8.38271 9.03392 8.38271 8.63033V2.79727L7.89211 3.27332C5.71895 5.38203 3.84267 7.77896 2.31403 10.3968Z" fill="#FFF8EE" stroke="#FFF8EE" stroke-width="0.7" stroke-linejoin="round"/>
</svg>
