<svg width="18" height="18" viewBox="0 0 18 18" fill="none" xmlns="http://www.w3.org/2000/svg">
<path d="M14 0H13C12.45 0 12 0.45 12 1C12 1.55 12.45 2 13 2H14C15.1 2 16 2.9 16 4V5C16 5.55 16.45 6 17 6C17.55 6 18 5.55 18 5V4C18 1.79 16.2 0 14 0Z" fill="#3CAE74"/>
<path d="M17 12C16.45 12 16 12.45 16 13V14C16 15.1 15.1 16 14 16H13C12.45 16 12 16.45 12 17C12 17.55 12.45 18 13 18H14C16.21 18 18 16.2 18 14V13C18 12.45 17.55 12 17 12Z" fill="#3CAE74"/>
<path d="M5 16H4C2.9 16 2 15.1 2 14V13C2 12.45 1.55 12 1 12C0.45 12 0 12.45 0 13V14C0 16.21 1.8 18 4 18H5C5.55 18 6 17.55 6 17C6 16.45 5.55 16 5 16Z" fill="#3CAE74"/>
<path d="M1 6C1.55 6 2 5.55 2 5V4C2 2.9 2.9 2 4 2H5C5.55 2 6 1.55 6 1C6 0.45 5.55 0 5 0H4C1.79 0 0 1.8 0 4V5C0 5.55 0.45 6 1 6Z" fill="#3CAE74"/>
<path d="M4.5 6V6.58C4.5 7.13 4.95 7.58 5.5 7.58C6.05 7.58 6.5 7.13 6.5 6.58V6C6.5 5.45 6.05 5 5.5 5C4.95 5 4.5 5.45 4.5 6Z" fill="#3CAE74"/>
<path d="M12.51 7.58C13.06 7.58 13.51 7.13 13.51 6.58V6C13.51 5.45 13.06 5 12.51 5C11.96 5 11.51 5.45 11.51 6V6.58C11.51 7.13 11.96 7.58 12.51 7.58Z" fill="#3CAE74"/>
<path d="M12.7101 12.17C12.3301 11.77 11.7001 11.75 11.3001 12.13C10.0901 13.27 7.88007 13.24 6.71007 12.06C6.32007 11.67 5.69007 11.67 5.30007 12.06C4.91007 12.45 4.91007 13.08 5.30007 13.47C6.27007 14.44 7.63007 15 9.05007 15C10.4701 15 11.7101 14.5 12.6801 13.58C13.0801 13.2 13.1001 12.57 12.7201 12.17H12.7101Z" fill="#3CAE74"/>
</svg>
