<svg width="18" height="18" viewBox="0 0 18 18" fill="none" xmlns="http://www.w3.org/2000/svg">
<path d="M14 0H13C12.45 0 12 0.45 12 1C12 1.55 12.45 2 13 2H14C15.1 2 16 2.9 16 4V5C16 5.55 16.45 6 17 6C17.55 6 18 5.55 18 5V4C18 1.79 16.2 0 14 0Z" fill="#3CAE74"/>
<path d="M17 12C16.45 12 16 12.45 16 13V14C16 15.1 15.1 16 14 16H13C12.45 16 12 16.45 12 17C12 17.55 12.45 18 13 18H14C16.21 18 18 16.2 18 14V13C18 12.45 17.55 12 17 12Z" fill="#3CAE74"/>
<path d="M5 16H4C2.9 16 2 15.1 2 14V13C2 12.45 1.55 12 1 12C0.45 12 0 12.45 0 13V14C0 16.21 1.8 18 4 18H5C5.55 18 6 17.55 6 17C6 16.45 5.55 16 5 16Z" fill="#3CAE74"/>
<path d="M1 6C1.55 6 2 5.55 2 5V4C2 2.9 2.9 2 4 2H5C5.55 2 6 1.55 6 1C6 0.45 5.55 0 5 0H4C1.79 0 0 1.8 0 4V5C0 5.55 0.45 6 1 6Z" fill="#3CAE74"/>
<rect x="3" y="7" width="12" height="4" fill="black"/>
<mask id="path-6-outside-1_2246_1424" maskUnits="userSpaceOnUse" x="4" y="5" width="4" height="3" fill="black">
<rect fill="white" x="4" y="5" width="4" height="3"/>
<path d="M6.5 6C6.74028 6 6.86042 6 6.93306 6.12245C7.0057 6.2449 6.96299 6.32308 6.87758 6.47944C6.8323 6.56233 6.7751 6.63911 6.70711 6.70711C6.51957 6.89464 6.26522 7 6 7C5.73478 7 5.48043 6.89464 5.29289 6.70711C5.2249 6.63911 5.16771 6.56233 5.12242 6.47944C5.03701 6.32308 4.9943 6.2449 5.06694 6.12245C5.13958 6 5.25972 6 5.5 6L6 6H6.5Z"/>
</mask>
<path d="M6.5 6C6.74028 6 6.86042 6 6.93306 6.12245C7.0057 6.2449 6.96299 6.32308 6.87758 6.47944C6.8323 6.56233 6.7751 6.63911 6.70711 6.70711C6.51957 6.89464 6.26522 7 6 7C5.73478 7 5.48043 6.89464 5.29289 6.70711C5.2249 6.63911 5.16771 6.56233 5.12242 6.47944C5.03701 6.32308 4.9943 6.2449 5.06694 6.12245C5.13958 6 5.25972 6 5.5 6L6 6H6.5Z" fill="#3CAE74"/>
<path d="M6.5 6C6.74028 6 6.86042 6 6.93306 6.12245C7.0057 6.2449 6.96299 6.32308 6.87758 6.47944C6.8323 6.56233 6.7751 6.63911 6.70711 6.70711C6.51957 6.89464 6.26522 7 6 7C5.73478 7 5.48043 6.89464 5.29289 6.70711C5.2249 6.63911 5.16771 6.56233 5.12242 6.47944C5.03701 6.32308 4.9943 6.2449 5.06694 6.12245C5.13958 6 5.25972 6 5.5 6L6 6H6.5Z" stroke="#3CAE74" stroke-linecap="round" mask="url(#path-6-outside-1_2246_1424)"/>
<mask id="path-7-outside-2_2246_1424" maskUnits="userSpaceOnUse" x="10" y="5" width="4" height="3" fill="black">
<rect fill="white" x="10" y="5" width="4" height="3"/>
<path d="M12.5 6C12.7403 6 12.8604 6 12.9331 6.12245C13.0057 6.2449 12.963 6.32308 12.8776 6.47944C12.8323 6.56233 12.7751 6.63911 12.7071 6.70711C12.5196 6.89464 12.2652 7 12 7C11.7348 7 11.4804 6.89464 11.2929 6.70711C11.2249 6.63911 11.1677 6.56233 11.1224 6.47944C11.037 6.32308 10.9943 6.2449 11.0669 6.12245C11.1396 6 11.2597 6 11.5 6L12 6H12.5Z"/>
</mask>
<path d="M12.5 6C12.7403 6 12.8604 6 12.9331 6.12245C13.0057 6.2449 12.963 6.32308 12.8776 6.47944C12.8323 6.56233 12.7751 6.63911 12.7071 6.70711C12.5196 6.89464 12.2652 7 12 7C11.7348 7 11.4804 6.89464 11.2929 6.70711C11.2249 6.63911 11.1677 6.56233 11.1224 6.47944C11.037 6.32308 10.9943 6.2449 11.0669 6.12245C11.1396 6 11.2597 6 11.5 6L12 6H12.5Z" fill="#3CAE74"/>
<path d="M12.5 6C12.7403 6 12.8604 6 12.9331 6.12245C13.0057 6.2449 12.963 6.32308 12.8776 6.47944C12.8323 6.56233 12.7751 6.63911 12.7071 6.70711C12.5196 6.89464 12.2652 7 12 7C11.7348 7 11.4804 6.89464 11.2929 6.70711C11.2249 6.63911 11.1677 6.56233 11.1224 6.47944C11.037 6.32308 10.9943 6.2449 11.0669 6.12245C11.1396 6 11.2597 6 11.5 6L12 6H12.5Z" stroke="#3CAE74" stroke-linecap="round" mask="url(#path-7-outside-2_2246_1424)"/>
<path d="M5.32429 12.2726C5.74217 12.1822 6.3005 12.1149 6.92802 12.0696C7.56331 12.0237 8.27735 12 9 12C9.72265 12 10.4367 12.0237 11.072 12.0696C11.6995 12.1149 12.2578 12.1822 12.6757 12.2726" stroke="#3CAE74" stroke-width="2" stroke-linecap="round"/>
</svg>
