<svg width="18" height="18" viewBox="0 0 18 18" fill="none" xmlns="http://www.w3.org/2000/svg">
<rect x="18" y="18" width="18" height="18" rx="9" transform="rotate(-180 18 18)" fill="#EEC54B"/>
<path d="M6.5 11.2222C7 11.7778 8 12.3333 9 12.3333M9 12.3333C10.25 12.3333 11.5 12.0556 11.5 10.6667C11.5 9.27778 10.2748 9 9 9M9 12.3333V9M9 12.3333V14M9 9C7.75 9 6.5 8.72222 6.5 7.33333C6.5 5.94444 7.75 5.66667 9 5.66667M9 9V5.66667M9 5.66667C10 5.66667 11 6.22222 11.5 6.77778M9 5.66667V4" stroke="white" stroke-width="1.5" stroke-linecap="round"/>
</svg>
