<svg width="17" height="22" viewBox="0 0 17 22" fill="none" xmlns="http://www.w3.org/2000/svg">
<path fill-rule="evenodd" clip-rule="evenodd" d="M10.6826 0.414543C10.9878 0.541383 11.186 0.833886 11.186 1.15769V8.69418H15.5225C15.8168 8.69418 16.089 8.84672 16.2373 9.09479C16.3856 9.34286 16.3878 9.64915 16.243 9.89921L15.7001 10.8371C13.6409 14.3937 11.0148 17.6079 7.92039 20.359L7.04258 21.1394C6.80031 21.3548 6.45062 21.4103 6.15085 21.2811C5.85107 21.1518 5.65768 20.8621 5.65768 20.5423V13.0697H1.17768C0.720621 13.0697 0.350098 12.708 0.350098 12.262C0.350098 12.1175 0.388967 11.9819 0.457057 11.8645C2.39779 8.36298 4.88251 5.17586 7.82289 2.41655L9.78477 0.575476C10.0239 0.351047 10.3773 0.287704 10.6826 0.414543ZM2.59515 11.4543H6.48527C6.94233 11.4543 7.31286 11.8159 7.31286 12.262V18.7056C9.98166 16.2442 12.2692 13.4159 14.1028 10.3096H10.3584C9.90131 10.3096 9.53079 9.94795 9.53079 9.50188V3.05481L8.9701 3.58097C6.48649 5.91165 4.34217 8.5609 2.59515 11.4543Z" fill="white" stroke="white" stroke-width="0.7" stroke-linejoin="round"/>
</svg>
