<svg width="24" height="24" viewBox="0 0 24 24" fill="none" xmlns="http://www.w3.org/2000/svg">
<rect x="8.76953" y="8.30762" width="7.38461" height="7.38461" rx="3.69231" stroke="white" stroke-width="1.5" stroke-linejoin="round"/>
<rect x="8" y="7" width="9" height="10" rx="4.5" stroke="white" stroke-width="1.5" stroke-linejoin="round"/>
<path fill-rule="evenodd" clip-rule="evenodd" d="M19.5901 8.44952L19.072 7.55048C18.6336 6.78975 17.6623 6.52731 16.9005 6.96381V6.96381C16.5379 7.17742 16.1052 7.23803 15.6979 7.13226C15.2905 7.02649 14.942 6.76304 14.7291 6.4C14.5921 6.16925 14.5186 5.90642 14.5158 5.6381V5.6381C14.5281 5.20791 14.3658 4.79103 14.0658 4.48244C13.7659 4.17385 13.3538 3.99982 12.9234 4H11.8796C11.4579 4 11.0537 4.16801 10.7563 4.46686C10.4589 4.76571 10.2928 5.17076 10.2948 5.59238V5.59238C10.2823 6.46289 9.57303 7.162 8.70243 7.16191C8.43411 7.15912 8.17128 7.08553 7.94053 6.94857V6.94857C7.17876 6.51207 6.20741 6.77451 5.7691 7.53524L5.21291 8.44952C4.77513 9.20931 5.03399 10.18 5.79196 10.621V10.621C6.28465 10.9054 6.58816 11.4311 6.58816 12C6.58816 12.5689 6.28465 13.0946 5.79196 13.379V13.379C5.03495 13.817 4.77581 14.7854 5.21291 15.5429V15.5429L5.73862 16.4495C5.94399 16.8201 6.28856 17.0935 6.69608 17.2094C7.10361 17.3252 7.54049 17.2738 7.91005 17.0667V17.0667C8.27335 16.8547 8.70628 16.7966 9.11261 16.9053C9.51894 17.0141 9.86499 17.2806 10.0739 17.6457C10.2108 17.8765 10.2844 18.1393 10.2872 18.4076V18.4076C10.2872 19.2871 11.0001 20 11.8796 20H12.9234C13.7999 20 14.5116 19.2917 14.5158 18.4152V18.4152C14.5137 17.9923 14.6808 17.5861 14.9799 17.287C15.279 16.9879 15.6852 16.8208 16.1081 16.8229C16.3758 16.83 16.6376 16.9033 16.8701 17.0362V17.0362C17.6298 17.474 18.6006 17.2151 19.0415 16.4571V16.4571L19.5901 15.5429C19.8024 15.1784 19.8607 14.7443 19.752 14.3368C19.6433 13.9292 19.3766 13.5818 19.011 13.3714V13.3714C18.6454 13.1611 18.3787 12.8137 18.27 12.4061C18.1613 11.9985 18.2196 11.5645 18.432 11.2C18.57 10.9589 18.7699 10.759 19.011 10.621V10.621C19.7644 10.1803 20.0227 9.21521 19.5901 8.45714V8.45714V8.44952Z" stroke="white" stroke-width="1.5" stroke-linecap="round" stroke-linejoin="round"/>
<path fill-rule="evenodd" clip-rule="evenodd" d="M18.8108 8.89333L18.3559 8.10667C17.9711 7.44103 17.1182 7.2114 16.4493 7.59333V7.59333C16.1309 7.78024 15.751 7.83327 15.3933 7.74073C15.0356 7.64818 14.7296 7.41766 14.5427 7.1C14.4224 6.89809 14.3578 6.66812 14.3553 6.43333V6.43333C14.3662 6.05692 14.2237 5.69215 13.9603 5.42214C13.6969 5.15212 13.335 4.99984 12.9571 5H12.0406C11.6704 5 11.3155 5.14701 11.0543 5.4085C10.7932 5.66999 10.6473 6.02441 10.6491 6.39333V6.39333C10.6381 7.15503 10.0154 7.76675 9.25093 7.76667C9.01533 7.76423 8.78455 7.69984 8.58194 7.58V7.58C7.91306 7.19806 7.06017 7.42769 6.67531 8.09333L6.18694 8.89333C5.80255 9.55814 6.02985 10.4075 6.69538 10.7933V10.7933C7.12799 11.0422 7.39448 11.5022 7.39448 12C7.39448 12.4978 7.12799 12.9578 6.69538 13.2067V13.2067C6.03069 13.5899 5.80315 14.4372 6.18694 15.1V15.1L6.64855 15.8933C6.82887 16.2176 7.13142 16.4568 7.48925 16.5582C7.84708 16.6595 8.23068 16.6146 8.55518 16.4333V16.4333C8.87417 16.2478 9.25431 16.197 9.61108 16.2922C9.96786 16.3873 10.2717 16.6205 10.4551 16.94C10.5754 17.1419 10.64 17.3719 10.6424 17.6067V17.6067C10.6424 18.3762 11.2684 19 12.0406 19H12.9571C13.7267 19 14.3517 18.3802 14.3553 17.6133V17.6133C14.3535 17.2433 14.5003 16.8878 14.7629 16.6261C15.0255 16.3644 15.3822 16.2182 15.7535 16.22C15.9886 16.2263 16.2184 16.2904 16.4225 16.4067V16.4067C17.0896 16.7897 17.942 16.5632 18.3292 15.9V15.9L18.8108 15.1C18.9973 14.7811 19.0484 14.4013 18.953 14.0447C18.8576 13.688 18.6234 13.384 18.3024 13.2V13.2C17.9814 13.016 17.7472 12.712 17.6518 12.3553C17.5563 11.9987 17.6075 11.6189 17.794 11.3C17.9152 11.0891 18.0907 10.9142 18.3024 10.7933V10.7933C18.9639 10.4077 19.1907 9.56331 18.8108 8.9V8.9V8.89333Z" stroke="white" stroke-width="1.5" stroke-linecap="round" stroke-linejoin="round"/>
<path fill-rule="evenodd" clip-rule="evenodd" d="M17.8399 9.33714L17.455 8.66286C17.1294 8.09231 16.4077 7.89548 15.8417 8.22286V8.22286C15.5723 8.38307 15.2508 8.42852 14.9482 8.34919C14.6455 8.26987 14.3866 8.07228 14.2284 7.8C14.1266 7.62693 14.072 7.42981 14.0699 7.22857V7.22857C14.0791 6.90593 13.9585 6.59327 13.7356 6.36183C13.5128 6.13039 13.2066 5.99987 12.8868 6H12.1113C11.798 6 11.4977 6.126 11.2767 6.35014C11.0558 6.57428 10.9324 6.87807 10.9339 7.19429V7.19429C10.9246 7.84717 10.3976 8.3715 9.75079 8.37143C9.55143 8.36934 9.35616 8.31414 9.18472 8.21143V8.21143C8.61874 7.88406 7.89707 8.08088 7.57142 8.65143L7.15818 9.33714C6.83293 9.90698 7.02525 10.635 7.5884 10.9657V10.9657C7.95445 11.1791 8.17995 11.5733 8.17995 12C8.17995 12.4267 7.95445 12.8209 7.5884 13.0343V13.0343C7.02597 13.3627 6.83343 14.089 7.15818 14.6571V14.6571L7.54877 15.3371C7.70135 15.6151 7.95736 15.8202 8.26013 15.907C8.56291 15.9939 8.8875 15.9554 9.16207 15.8V15.8C9.43199 15.641 9.75364 15.5974 10.0555 15.679C10.3574 15.7606 10.6145 15.9605 10.7697 16.2343C10.8715 16.4074 10.9261 16.6045 10.9282 16.8057V16.8057C10.9282 17.4653 11.4579 18 12.1113 18H12.8868C13.538 18 14.0668 17.4688 14.0699 16.8114V16.8114C14.0684 16.4942 14.1925 16.1896 14.4147 15.9653C14.6369 15.7409 14.9388 15.6156 15.253 15.6171C15.4519 15.6225 15.6463 15.6775 15.8191 15.7771V15.7771C16.3836 16.1055 17.1048 15.9113 17.4324 15.3429V15.3429L17.8399 14.6571C17.9977 14.3838 18.041 14.0582 17.9602 13.7526C17.8795 13.4469 17.6814 13.1863 17.4097 13.0286V13.0286C17.1381 12.8708 16.9399 12.6103 16.8592 12.3046C16.7784 11.9989 16.8217 11.6733 16.9795 11.4C17.0821 11.2192 17.2306 11.0693 17.4097 10.9657V10.9657C17.9695 10.6352 18.1614 9.91141 17.8399 9.34286V9.34286V9.33714Z" stroke="white" stroke-width="1.5" stroke-linecap="round" stroke-linejoin="round"/>
</svg>
