<svg width="18" height="18" viewBox="0 0 18 18" fill="none" xmlns="http://www.w3.org/2000/svg">
<g clip-path="url(#clip0_2362_2034)">
<rect x="18" y="18" width="18" height="18" rx="9" transform="rotate(-180 18 18)" fill="#88C29A"/>
<path d="M9.208 6.328L7.352 9.168L9.216 12L7.88 12L6.656 10.04L5.424 12L4.128 12L5.992 9.16L4.136 6.328L5.464 6.328L6.68 8.288L7.92 6.328L9.208 6.328ZM11.1116 8.912L11.9836 8.912C12.2556 8.912 12.4716 8.84 12.6316 8.696C12.7916 8.54667 12.8716 8.34933 12.8716 8.104C12.8716 7.85333 12.7916 7.656 12.6316 7.512C12.4769 7.36267 12.2609 7.288 11.9836 7.288L11.1116 7.288L11.1116 8.912ZM12.1196 9.864L11.1036 9.864L11.1036 12L9.99956 12L9.99956 6.328L12.1196 6.328C12.6742 6.328 13.1222 6.49333 13.4636 6.824C13.8102 7.15467 13.9836 7.57867 13.9836 8.096C13.9836 8.61333 13.8102 9.03733 13.4636 9.368C13.1222 9.69867 12.6742 9.864 12.1196 9.864Z" fill="white"/>
</g>
<defs>
<clipPath id="clip0_2362_2034">
<rect x="18" y="18" width="18" height="18" rx="9" transform="rotate(-180 18 18)" fill="white"/>
</clipPath>
</defs>
</svg>
