<svg width="24" height="24" viewBox="0 0 24 24" fill="none" xmlns="http://www.w3.org/2000/svg">
<path d="M15 11H12.99V9C12.99 8.45 12.54 8 11.99 8C11.44 8 10.99 8.45 10.99 9V11H9C8.45 11 8 11.45 8 12C8 12.55 8.45 13 9 13H10.99V15C10.99 15.55 11.44 16 11.99 16C12.54 16 12.99 15.55 12.99 15V13H15C15.55 13 16 12.55 16 12C16 11.45 15.55 11 15 11Z" fill="white"/>
<path d="M16.0098 3H8.00977C5.24977 3 3.00977 5.24 3.00977 8V16C3.00977 18.76 5.24977 21 8.00977 21H16.0098C18.7698 21 21.0098 18.76 21.0098 16V8C21.0098 5.24 18.7698 3 16.0098 3ZM19.0098 16C19.0098 17.65 17.6598 19 16.0098 19H8.00977C6.35977 19 5.00977 17.65 5.00977 16V8C5.00977 6.35 6.35977 5 8.00977 5H16.0098C17.6598 5 19.0098 6.35 19.0098 8V16Z" fill="white"/>
</svg>
