<svg width="26" height="27" viewBox="0 0 26 27" fill="none" xmlns="http://www.w3.org/2000/svg">
<mask id="path-1-inside-1_2562_2336" fill="white">
<path d="M1.59714 13.02L1.65678 13.14C1.89532 13.6125 2.57369 13.6125 2.81223 13.14L2.87187 13.02C3.11787 12.5325 3.51296 12.1425 3.99751 11.8875L4.11678 11.8275C4.58642 11.5875 4.58642 10.905 4.11678 10.665L3.99751 10.605C3.51296 10.3575 3.12532 9.96 2.87187 9.4725L2.81223 9.3525C2.57369 8.88 1.89532 8.88 1.65678 9.3525L1.59714 9.4725C1.35114 9.96 0.956047 10.35 0.471501 10.605L0.352228 10.665C-0.117409 10.905 -0.117409 11.5875 0.352228 11.8275L0.471501 11.8875C0.956047 12.135 1.34368 12.5325 1.59714 13.02Z"/>
<path d="M2.88678 5.19L3.11041 5.3025C3.99751 5.76 4.71314 6.48 5.16787 7.3725L5.27969 7.5975C5.71951 8.4675 6.95697 8.4675 7.39678 7.5975L7.5086 7.3725C7.96333 6.48 8.67897 5.76 9.56606 5.3025L9.7897 5.19C10.6544 4.7475 10.6544 3.5025 9.7897 3.06L9.56606 2.9475C8.67897 2.49 7.96333 1.77 7.5086 0.8775L7.39678 0.6525C6.95697 -0.2175 5.71951 -0.2175 5.27969 0.6525L5.16787 0.8775C4.71314 1.77 3.99751 2.49 3.11041 2.9475L2.88678 3.06C2.02205 3.5025 2.02205 4.7475 2.88678 5.19Z"/>
<path d="M23.9534 21.81L23.7297 21.6975C22.8426 21.24 22.127 20.52 21.6723 19.6275L21.5604 19.4025C21.1206 18.5325 19.8832 18.5325 19.4433 19.4025L19.3315 19.6275C18.8768 20.52 18.1612 21.24 17.2741 21.6975L17.0504 21.81C16.1857 22.2525 16.1857 23.4975 17.0504 23.94L17.2741 24.0525C18.1612 24.51 18.8768 25.23 19.3315 26.1225L19.4433 26.3475C19.8832 27.2175 21.1206 27.2175 21.5604 26.3475L21.6723 26.1225C22.127 25.23 22.8426 24.51 23.7297 24.0525L23.9534 23.94C24.8181 23.4975 24.8181 22.2525 23.9534 21.81Z"/>
<path d="M25.2803 8.61L24.4454 7.5525L24.9224 6.24C25.3772 4.995 25.079 3.6375 24.1472 2.7C23.2153 1.7625 21.8661 1.4625 20.6286 1.92L19.3241 2.4L18.273 1.56C17.2293 0.7275 15.8428 0.585 14.6575 1.2C13.4722 1.815 12.779 3.0225 12.8386 4.365L12.8982 5.655L11.8024 6.3825C10.6992 7.1175 10.1401 8.3925 10.3413 9.705C10.4084 10.155 10.565 10.5675 10.7886 10.935L1.32877 20.775C0.0391366 22.1175 0.0540456 24.285 1.36605 25.605C2.0295 26.2725 2.90914 26.61 3.78878 26.61C4.66842 26.61 5.51078 26.2875 6.16678 25.65L15.9472 16.1325C16.3124 16.3575 16.7224 16.515 17.1697 16.5825C17.3486 16.6125 17.5201 16.62 17.6915 16.62C18.8023 16.62 19.8384 16.065 20.4721 15.105L21.1952 14.0025L22.4774 14.0625C23.8117 14.1375 25.0119 13.425 25.6232 12.2325C26.2344 11.04 26.0928 9.645 25.2654 8.595L25.2803 8.61ZM11.0719 13.89L12.533 12.3675C12.6001 12.39 12.6672 12.42 12.7342 12.4425L14.0835 12.8325L14.4712 14.19C14.4935 14.2575 14.5233 14.325 14.5457 14.3925L12.2422 16.635L11.0719 13.8975V13.89ZM10.5202 18.3L8.4777 20.2875L7.38933 17.7225L9.39461 15.6375L10.5277 18.3H10.5202ZM4.62369 24.0375C4.16151 24.4875 3.4086 24.48 2.95387 24.0225C2.49914 23.565 2.49169 22.815 2.93896 22.3425L5.68969 19.4775L6.74824 21.96L4.61623 24.03L4.62369 24.0375ZM23.6477 11.22C23.5732 11.37 23.2601 11.8575 22.6041 11.8275L21.2623 11.76C20.5168 11.7225 19.7937 12.09 19.3763 12.72L18.6159 13.875C18.2506 14.43 17.6841 14.3925 17.5201 14.3625C17.3561 14.34 16.8044 14.205 16.6181 13.5675L16.2155 12.1575C16.0143 11.4375 15.4626 10.89 14.7544 10.6875L13.353 10.2825C12.7193 10.1025 12.5852 9.5475 12.5628 9.375C12.5404 9.2025 12.4957 8.64 13.0473 8.2725L14.1953 7.5075C14.8215 7.095 15.1868 6.3675 15.1495 5.61L15.0824 4.26C15.0526 3.5925 15.5372 3.285 15.6863 3.21C15.7683 3.165 15.9621 3.0825 16.2081 3.0825C16.4093 3.0825 16.6479 3.1425 16.8864 3.33L17.9823 4.2075C18.5563 4.665 19.3464 4.8 20.0397 4.545L21.3964 4.0425C22.0152 3.8175 22.4475 4.185 22.5668 4.305C22.6861 4.425 23.0514 4.86 22.8277 5.4825L22.3283 6.8475C22.0748 7.545 22.2015 8.34 22.6637 8.9175L23.5359 10.02C23.9534 10.545 23.7297 11.0775 23.6552 11.2275L23.6477 11.22Z"/>
</mask>
<path d="M1.59714 13.02L1.65678 13.14C1.89532 13.6125 2.57369 13.6125 2.81223 13.14L2.87187 13.02C3.11787 12.5325 3.51296 12.1425 3.99751 11.8875L4.11678 11.8275C4.58642 11.5875 4.58642 10.905 4.11678 10.665L3.99751 10.605C3.51296 10.3575 3.12532 9.96 2.87187 9.4725L2.81223 9.3525C2.57369 8.88 1.89532 8.88 1.65678 9.3525L1.59714 9.4725C1.35114 9.96 0.956047 10.35 0.471501 10.605L0.352228 10.665C-0.117409 10.905 -0.117409 11.5875 0.352228 11.8275L0.471501 11.8875C0.956047 12.135 1.34368 12.5325 1.59714 13.02Z" fill="#9D9D9D"/>
<path d="M2.88678 5.19L3.11041 5.3025C3.99751 5.76 4.71314 6.48 5.16787 7.3725L5.27969 7.5975C5.71951 8.4675 6.95697 8.4675 7.39678 7.5975L7.5086 7.3725C7.96333 6.48 8.67897 5.76 9.56606 5.3025L9.7897 5.19C10.6544 4.7475 10.6544 3.5025 9.7897 3.06L9.56606 2.9475C8.67897 2.49 7.96333 1.77 7.5086 0.8775L7.39678 0.6525C6.95697 -0.2175 5.71951 -0.2175 5.27969 0.6525L5.16787 0.8775C4.71314 1.77 3.99751 2.49 3.11041 2.9475L2.88678 3.06C2.02205 3.5025 2.02205 4.7475 2.88678 5.19Z" fill="#9D9D9D"/>
<path d="M23.9534 21.81L23.7297 21.6975C22.8426 21.24 22.127 20.52 21.6723 19.6275L21.5604 19.4025C21.1206 18.5325 19.8832 18.5325 19.4433 19.4025L19.3315 19.6275C18.8768 20.52 18.1612 21.24 17.2741 21.6975L17.0504 21.81C16.1857 22.2525 16.1857 23.4975 17.0504 23.94L17.2741 24.0525C18.1612 24.51 18.8768 25.23 19.3315 26.1225L19.4433 26.3475C19.8832 27.2175 21.1206 27.2175 21.5604 26.3475L21.6723 26.1225C22.127 25.23 22.8426 24.51 23.7297 24.0525L23.9534 23.94C24.8181 23.4975 24.8181 22.2525 23.9534 21.81Z" fill="#9D9D9D"/>
<path d="M25.2803 8.61L24.4454 7.5525L24.9224 6.24C25.3772 4.995 25.079 3.6375 24.1472 2.7C23.2153 1.7625 21.8661 1.4625 20.6286 1.92L19.3241 2.4L18.273 1.56C17.2293 0.7275 15.8428 0.585 14.6575 1.2C13.4722 1.815 12.779 3.0225 12.8386 4.365L12.8982 5.655L11.8024 6.3825C10.6992 7.1175 10.1401 8.3925 10.3413 9.705C10.4084 10.155 10.565 10.5675 10.7886 10.935L1.32877 20.775C0.0391366 22.1175 0.0540456 24.285 1.36605 25.605C2.0295 26.2725 2.90914 26.61 3.78878 26.61C4.66842 26.61 5.51078 26.2875 6.16678 25.65L15.9472 16.1325C16.3124 16.3575 16.7224 16.515 17.1697 16.5825C17.3486 16.6125 17.5201 16.62 17.6915 16.62C18.8023 16.62 19.8384 16.065 20.4721 15.105L21.1952 14.0025L22.4774 14.0625C23.8117 14.1375 25.0119 13.425 25.6232 12.2325C26.2344 11.04 26.0928 9.645 25.2654 8.595L25.2803 8.61ZM11.0719 13.89L12.533 12.3675C12.6001 12.39 12.6672 12.42 12.7342 12.4425L14.0835 12.8325L14.4712 14.19C14.4935 14.2575 14.5233 14.325 14.5457 14.3925L12.2422 16.635L11.0719 13.8975V13.89ZM10.5202 18.3L8.4777 20.2875L7.38933 17.7225L9.39461 15.6375L10.5277 18.3H10.5202ZM4.62369 24.0375C4.16151 24.4875 3.4086 24.48 2.95387 24.0225C2.49914 23.565 2.49169 22.815 2.93896 22.3425L5.68969 19.4775L6.74824 21.96L4.61623 24.03L4.62369 24.0375ZM23.6477 11.22C23.5732 11.37 23.2601 11.8575 22.6041 11.8275L21.2623 11.76C20.5168 11.7225 19.7937 12.09 19.3763 12.72L18.6159 13.875C18.2506 14.43 17.6841 14.3925 17.5201 14.3625C17.3561 14.34 16.8044 14.205 16.6181 13.5675L16.2155 12.1575C16.0143 11.4375 15.4626 10.89 14.7544 10.6875L13.353 10.2825C12.7193 10.1025 12.5852 9.5475 12.5628 9.375C12.5404 9.2025 12.4957 8.64 13.0473 8.2725L14.1953 7.5075C14.8215 7.095 15.1868 6.3675 15.1495 5.61L15.0824 4.26C15.0526 3.5925 15.5372 3.285 15.6863 3.21C15.7683 3.165 15.9621 3.0825 16.2081 3.0825C16.4093 3.0825 16.6479 3.1425 16.8864 3.33L17.9823 4.2075C18.5563 4.665 19.3464 4.8 20.0397 4.545L21.3964 4.0425C22.0152 3.8175 22.4475 4.185 22.5668 4.305C22.6861 4.425 23.0514 4.86 22.8277 5.4825L22.3283 6.8475C22.0748 7.545 22.2015 8.34 22.6637 8.9175L23.5359 10.02C23.9534 10.545 23.7297 11.0775 23.6552 11.2275L23.6477 11.22Z" fill="#9D9D9D"/>
<path d="M1.59714 13.02L1.65678 13.14C1.89532 13.6125 2.57369 13.6125 2.81223 13.14L2.87187 13.02C3.11787 12.5325 3.51296 12.1425 3.99751 11.8875L4.11678 11.8275C4.58642 11.5875 4.58642 10.905 4.11678 10.665L3.99751 10.605C3.51296 10.3575 3.12532 9.96 2.87187 9.4725L2.81223 9.3525C2.57369 8.88 1.89532 8.88 1.65678 9.3525L1.59714 9.4725C1.35114 9.96 0.956047 10.35 0.471501 10.605L0.352228 10.665C-0.117409 10.905 -0.117409 11.5875 0.352228 11.8275L0.471501 11.8875C0.956047 12.135 1.34368 12.5325 1.59714 13.02Z" stroke="#9D9D9D" stroke-width="2" mask="url(#path-1-inside-1_2562_2336)"/>
<path d="M2.88678 5.19L3.11041 5.3025C3.99751 5.76 4.71314 6.48 5.16787 7.3725L5.27969 7.5975C5.71951 8.4675 6.95697 8.4675 7.39678 7.5975L7.5086 7.3725C7.96333 6.48 8.67897 5.76 9.56606 5.3025L9.7897 5.19C10.6544 4.7475 10.6544 3.5025 9.7897 3.06L9.56606 2.9475C8.67897 2.49 7.96333 1.77 7.5086 0.8775L7.39678 0.6525C6.95697 -0.2175 5.71951 -0.2175 5.27969 0.6525L5.16787 0.8775C4.71314 1.77 3.99751 2.49 3.11041 2.9475L2.88678 3.06C2.02205 3.5025 2.02205 4.7475 2.88678 5.19Z" stroke="#9D9D9D" stroke-width="2" mask="url(#path-1-inside-1_2562_2336)"/>
<path d="M23.9534 21.81L23.7297 21.6975C22.8426 21.24 22.127 20.52 21.6723 19.6275L21.5604 19.4025C21.1206 18.5325 19.8832 18.5325 19.4433 19.4025L19.3315 19.6275C18.8768 20.52 18.1612 21.24 17.2741 21.6975L17.0504 21.81C16.1857 22.2525 16.1857 23.4975 17.0504 23.94L17.2741 24.0525C18.1612 24.51 18.8768 25.23 19.3315 26.1225L19.4433 26.3475C19.8832 27.2175 21.1206 27.2175 21.5604 26.3475L21.6723 26.1225C22.127 25.23 22.8426 24.51 23.7297 24.0525L23.9534 23.94C24.8181 23.4975 24.8181 22.2525 23.9534 21.81Z" stroke="#9D9D9D" stroke-width="2" mask="url(#path-1-inside-1_2562_2336)"/>
<path d="M25.2803 8.61L24.4454 7.5525L24.9224 6.24C25.3772 4.995 25.079 3.6375 24.1472 2.7C23.2153 1.7625 21.8661 1.4625 20.6286 1.92L19.3241 2.4L18.273 1.56C17.2293 0.7275 15.8428 0.585 14.6575 1.2C13.4722 1.815 12.779 3.0225 12.8386 4.365L12.8982 5.655L11.8024 6.3825C10.6992 7.1175 10.1401 8.3925 10.3413 9.705C10.4084 10.155 10.565 10.5675 10.7886 10.935L1.32877 20.775C0.0391366 22.1175 0.0540456 24.285 1.36605 25.605C2.0295 26.2725 2.90914 26.61 3.78878 26.61C4.66842 26.61 5.51078 26.2875 6.16678 25.65L15.9472 16.1325C16.3124 16.3575 16.7224 16.515 17.1697 16.5825C17.3486 16.6125 17.5201 16.62 17.6915 16.62C18.8023 16.62 19.8384 16.065 20.4721 15.105L21.1952 14.0025L22.4774 14.0625C23.8117 14.1375 25.0119 13.425 25.6232 12.2325C26.2344 11.04 26.0928 9.645 25.2654 8.595L25.2803 8.61ZM11.0719 13.89L12.533 12.3675C12.6001 12.39 12.6672 12.42 12.7342 12.4425L14.0835 12.8325L14.4712 14.19C14.4935 14.2575 14.5233 14.325 14.5457 14.3925L12.2422 16.635L11.0719 13.8975V13.89ZM10.5202 18.3L8.4777 20.2875L7.38933 17.7225L9.39461 15.6375L10.5277 18.3H10.5202ZM4.62369 24.0375C4.16151 24.4875 3.4086 24.48 2.95387 24.0225C2.49914 23.565 2.49169 22.815 2.93896 22.3425L5.68969 19.4775L6.74824 21.96L4.61623 24.03L4.62369 24.0375ZM23.6477 11.22C23.5732 11.37 23.2601 11.8575 22.6041 11.8275L21.2623 11.76C20.5168 11.7225 19.7937 12.09 19.3763 12.72L18.6159 13.875C18.2506 14.43 17.6841 14.3925 17.5201 14.3625C17.3561 14.34 16.8044 14.205 16.6181 13.5675L16.2155 12.1575C16.0143 11.4375 15.4626 10.89 14.7544 10.6875L13.353 10.2825C12.7193 10.1025 12.5852 9.5475 12.5628 9.375C12.5404 9.2025 12.4957 8.64 13.0473 8.2725L14.1953 7.5075C14.8215 7.095 15.1868 6.3675 15.1495 5.61L15.0824 4.26C15.0526 3.5925 15.5372 3.285 15.6863 3.21C15.7683 3.165 15.9621 3.0825 16.2081 3.0825C16.4093 3.0825 16.6479 3.1425 16.8864 3.33L17.9823 4.2075C18.5563 4.665 19.3464 4.8 20.0397 4.545L21.3964 4.0425C22.0152 3.8175 22.4475 4.185 22.5668 4.305C22.6861 4.425 23.0514 4.86 22.8277 5.4825L22.3283 6.8475C22.0748 7.545 22.2015 8.34 22.6637 8.9175L23.5359 10.02C23.9534 10.545 23.7297 11.0775 23.6552 11.2275L23.6477 11.22Z" stroke="#9D9D9D" stroke-width="2" mask="url(#path-1-inside-1_2562_2336)"/>
</svg>
