<svg width="14" height="20" viewBox="0 0 14 20" fill="none" xmlns="http://www.w3.org/2000/svg">
<path d="M13.4502 4.92773C13.45 2.2906 11.3362 0.149414 8.72559 0.149414C6.11505 0.149493 4.0021 2.29065 4.00195 4.92773V12.8623C4.00208 14.4232 5.25285 15.6914 6.7998 15.6914C8.34676 15.6914 9.59753 14.4232 9.59766 12.8623V5.20605C9.59747 4.72144 9.20885 4.3252 8.72559 4.3252C8.24239 4.32527 7.8537 4.72149 7.85352 5.20605V12.8623C7.85339 13.4537 7.38002 13.9297 6.7998 13.9297C6.21959 13.9297 5.74622 13.4537 5.74609 12.8623V4.92773C5.74624 3.26018 7.0818 1.91121 8.72559 1.91113C10.3694 1.91113 11.7049 3.26013 11.7051 4.92773V12.7227C11.7051 15.4666 9.50741 17.6885 6.7998 17.6885C4.0922 17.6885 1.89453 15.4666 1.89453 12.7227V5.20605C1.89435 4.72159 1.50552 4.32543 1.02246 4.3252C0.539201 4.3252 0.149597 4.72144 0.149414 5.20605V12.7227C0.149414 16.4362 3.12545 19.4502 6.7998 19.4502C10.4742 19.4502 13.4502 16.4362 13.4502 12.7227V4.92773Z" fill="white" stroke="white" stroke-width="0.3" stroke-linecap="round"/>
</svg>
