<svg width="19" height="21" viewBox="0 0 19 21" fill="none" xmlns="http://www.w3.org/2000/svg">
<path d="M14.5 0V0.00229845C13.375 0.00229845 13.9938 6.66169e-06 13.375 6.66169e-06C12.7563 6.66169e-06 13.375 0.00228523 12.25 0.00229615V0L7.75 0C6.625 0 7.24375 0 6.625 0C6.00625 0 6.625 0 5.5 0C3.01375 0 1 1.89529 1 4.23529V13.7647C1 16.1047 3.01375 18 5.5 18H14.5C16.9863 18 19 16.1047 19 13.7647V4.23529C19 1.89529 16.9863 0 14.5 0ZM16.75 13.7647C16.75 14.9294 15.7375 15.8823 14.5 15.8823H5.5C4.2625 15.8823 3.25 14.9294 3.25 13.7647V4.23529C3.25 3.07059 4.2625 2.11765 5.5 2.11765C6.625 2.08811 5.5 2.11765 6.625 2.08811C7.24375 2.08811 6.625 2.08811 7.75 2.08811L12.25 2.11765C13.375 2.11765 12.7563 2.11765 13.375 2.11765C13.9938 2.11765 13.375 2.08811 14.5478 2.11812L14.5 2.11765C15.7375 2.11765 16.75 3.07059 16.75 4.23529V13.7647Z" fill="white"/>
<path d="M1.98552 9.59139C2.58355 8.76841 3.41644 8.1404 4.31378 7.91034C5.21792 7.67856 6.18021 7.8539 7.00836 8.62596L7.0159 8.63385L14.6401 16.8493L14.8129 17.0352L14.5662 17.0973L12.6286 17.5811L12.5431 17.6023L12.4826 17.5378L5.75455 10.3018C5.09833 9.83284 4.13441 10.0061 3.5952 10.7186C3.59167 10.7233 3.58758 10.7276 3.58408 10.7323L3.57317 10.7473L3.57238 10.7467C3.30572 11.0952 3.24779 11.1761 3.22223 11.2154C3.19414 11.2586 3.19519 11.2675 3.04738 11.471L2.51987 12.1971L1.45708 13.6399L1.16311 14.0395L1.18664 13.5436L1.29584 11.28L1.05323 11.28L1.05331 11.1303L1.05395 10.9799L1.37353 10.9803C1.45122 10.8677 1.48363 10.7989 1.49735 10.7601C1.49234 10.7577 1.48711 10.754 1.48198 10.7513C1.45938 10.7395 1.40922 10.7114 1.37912 10.6536C1.34574 10.5894 1.35351 10.5231 1.37127 10.4717C1.38834 10.4224 1.41918 10.3709 1.45858 10.3167C1.60341 10.1173 1.60435 10.1169 1.63444 10.0763C1.66033 10.0413 1.70929 9.97475 1.8987 9.7142L1.89712 9.71305L1.98552 9.59139Z" fill="white" stroke="white" stroke-width="0.3"/>
<circle cx="12.7397" cy="6.95155" r="1.78985" transform="rotate(5 12.7397 6.95155)" stroke="white" stroke-width="2.1"/>
</svg>
