<svg width="126" height="133" viewBox="0 0 126 133" fill="none" xmlns="http://www.w3.org/2000/svg">
<path d="M98 14V7C98 3.15 94.85 0 91 0C87.15 0 84 3.15 84 7V14H42V7C42 3.15 38.85 0 35 0C31.15 0 28 3.15 28 7V14C12.53 14 0 26.53 0 42V105C0 120.47 12.53 133 28 133H98C113.47 133 126 120.47 126 105V42C126 26.53 113.47 14 98 14ZM112 105C112 112.7 105.7 119 98 119H28C20.3 119 14 112.7 14 105V42C14 34.3 20.3 28 28 28V35C28 38.85 31.15 42 35 42C38.85 42 42 38.85 42 35V28H84V35C84 38.85 87.15 42 91 42C94.85 42 98 38.85 98 35V28C105.7 28 112 34.3 112 42V105Z" fill="white"/>
<path d="M46.97 65.0997C44.38 62.5097 39.62 62.5097 37.03 65.0997C36.4 65.7297 35.91 66.4998 35.56 67.3398C35.21 68.2498 35 69.1597 35 70.0697C35 70.9797 35.21 71.8897 35.56 72.7297C35.91 73.5697 36.4 74.3398 37.03 74.9698C38.36 76.2998 40.18 77.0697 42 77.0697C42.91 77.0697 43.82 76.8598 44.66 76.5098C45.5 76.1598 46.27 75.6698 46.97 74.9698C47.6 74.3398 48.09 73.5697 48.44 72.7297C48.86 71.8897 49 70.9797 49 70.0697C49 69.1597 48.86 68.2498 48.44 67.3398C48.09 66.4998 47.6 65.7297 46.97 65.0997V65.0997Z" fill="white"/>
<path d="M46.97 86.1002C46.62 85.7502 46.27 85.4702 45.92 85.2602C45.5 84.9802 45.08 84.7701 44.66 84.5601C44.24 84.4201 43.82 84.2802 43.4 84.2102C42.49 84.0002 41.51 84.0002 40.67 84.2102C40.18 84.2102 39.76 84.4201 39.34 84.5601C38.92 84.7701 38.5 84.9802 38.15 85.2602C37.73 85.4702 37.38 85.7502 37.03 86.1002C36.4 86.7302 35.91 87.5002 35.56 88.3402C35.21 89.2502 35 90.0901 35 91.0701C35 92.9601 35.77 94.7102 37.03 95.9702C38.36 97.3002 40.18 98.0701 42 98.0701C43.82 98.0701 45.64 97.3002 46.97 95.9702C48.3 94.7102 49 92.9601 49 91.0701C49 90.0901 48.79 89.2502 48.44 88.3402C48.09 87.5002 47.6 86.7302 46.97 86.1002V86.1002Z" fill="white"/>
<path d="M67.97 65.1C67.62 64.75 67.27 64.47 66.92 64.19C66.5 63.98 66.08 63.77 65.66 63.56C65.24 63.42 64.82 63.2801 64.4 63.2101C63 62.9301 61.6 63.07 60.34 63.56C59.5 63.91 58.73 64.47 58.03 65.1C57.4 65.73 56.91 66.5001 56.56 67.3401C56.21 68.2501 56 69.16 56 70.07C56 70.98 56.21 71.89 56.56 72.73C56.91 73.57 57.4 74.3401 58.03 74.9701C58.73 75.6701 59.5 76.1601 60.34 76.5101C61.18 76.8601 62.09 77.07 63 77.07C63.91 77.07 64.82 76.8601 65.66 76.5101C66.5 76.1601 67.27 75.6701 67.97 74.9701C68.6 74.3401 69.09 73.57 69.44 72.73C69.86 71.89 70 70.98 70 70.07C70 69.16 69.86 68.2501 69.44 67.3401C69.09 66.5001 68.6 65.73 67.97 65.1V65.1Z" fill="white"/>
<path d="M67.97 86.1002C67.34 85.4702 66.57 84.9102 65.66 84.5602C63.98 83.8602 62.02 83.8602 60.34 84.5602C59.5 84.9102 58.73 85.4702 58.03 86.1002C57.4 86.7302 56.91 87.5002 56.56 88.3402C56.21 89.2502 56 90.0901 56 91.0701C56 91.9801 56.21 92.8901 56.56 93.7301C56.91 94.5701 57.4 95.3402 58.03 95.9702C58.73 96.6702 59.5 97.1602 60.34 97.5102C61.18 97.8602 62.09 98.0701 63 98.0701C64.89 98.0701 66.64 97.3002 67.97 95.9702C68.6 95.3402 69.0899 94.5701 69.5099 93.7301C69.8599 92.8901 70 91.9801 70 91.0701C70 90.1601 69.86 89.2502 69.44 88.3402C69.09 87.5002 68.6 86.7302 67.97 86.1002V86.1002Z" fill="white"/>
<path d="M88.97 65.1001C88.34 64.4701 87.57 63.9101 86.66 63.5601C84.07 62.5101 80.99 63.1401 79.03 65.1001C78.4 65.7301 77.91 66.5001 77.56 67.3401C77.21 68.2501 77 69.16 77 70.07C77 70.98 77.21 71.89 77.56 72.73C77.91 73.57 78.4 74.3401 79.03 74.9701C79.73 75.6701 80.5 76.1601 81.34 76.5101C82.18 76.8601 83.09 77.07 84 77.07C84.91 77.07 85.82 76.8601 86.66 76.5101C87.5 76.1601 88.27 75.6701 88.97 74.9701C89.6 74.3401 90.09 73.57 90.44 72.73C90.86 71.89 91 70.98 91 70.07C91 69.16 90.86 68.2501 90.44 67.3401C90.09 66.5001 89.6 65.7301 88.97 65.1001Z" fill="white"/>
<path d="M88.97 86.1002C88.62 85.7502 88.27 85.4702 87.92 85.2602C87.5 84.9802 87.08 84.7701 86.66 84.5601C86.24 84.4201 85.82 84.2802 85.4 84.2102C84.49 84.0002 83.51 84.0002 82.67 84.2102C82.18 84.2102 81.76 84.4201 81.34 84.5601C80.92 84.7701 80.5 84.9802 80.15 85.2602C79.73 85.4702 79.38 85.7502 79.03 86.1002C78.4 86.7302 77.91 87.5002 77.56 88.3402C77.21 89.2502 77 90.0901 77 91.0701C77 92.9601 77.77 94.7102 79.03 95.9702C80.36 97.3002 82.18 98.0701 84 98.0701C85.82 98.0701 87.64 97.3002 88.97 95.9702C90.3 94.7102 91 92.9601 91 91.0701C91 90.0901 90.79 89.2502 90.44 88.3402C90.09 87.5002 89.6 86.7302 88.97 86.1002V86.1002Z" fill="white"/>
</svg>
