<svg width="108" height="133" viewBox="0 0 108 133" fill="none" xmlns="http://www.w3.org/2000/svg">
<path fill-rule="evenodd" clip-rule="evenodd" d="M2.18492 49.4809C4.35107 22.6496 26.3114 2 52.6797 2H55.3203C81.6886 2 103.649 22.6496 105.815 49.4809C106.979 63.8942 102.618 78.2061 93.6518 89.402L64.3499 125.99C59.0006 132.67 48.9994 132.67 43.6501 125.99L14.3482 89.402C5.38188 78.2061 1.0213 63.8942 2.18492 49.4809ZM52.6797 11.3628C31.0838 11.3628 13.0981 28.2749 11.324 50.25C10.3556 62.2459 13.9848 74.1573 21.4472 83.4754L50.7492 120.064C52.4293 122.162 55.5707 122.162 57.2508 120.064L86.5528 83.4753C94.0152 74.1573 97.6444 62.2459 96.676 50.25C94.9019 28.2749 76.9162 11.3628 55.3203 11.3628H52.6797Z" fill="white" stroke="white" stroke-width="4"/>
<path d="M54 32.5C65.8786 32.5 75.5 42.1214 75.5 54C75.5 65.8786 65.8786 75.5 54 75.5C42.1214 75.5 32.5 65.8786 32.5 54C32.5 42.1214 42.1214 32.5 54 32.5ZM54 44C48.5011 44 44 48.5011 44 54C44 59.4989 48.5011 64 54 64C59.4989 64 64 59.4989 64 54C64 48.5011 59.4989 44 54 44Z" fill="white" stroke="white"/>
</svg>
