<svg width="121" height="152" viewBox="0 0 121 152" fill="none" xmlns="http://www.w3.org/2000/svg">
<path d="M120.953 97.7577L116.64 66.1097C113.084 39.7113 92.8071 19.2469 68.1417 15.7474V7.60761C68.1417 3.42343 64.737 0 60.5757 0C56.4143 0 53.0096 3.42343 53.0096 7.60761V15.7474C28.3443 19.3229 8.21847 39.7113 4.58676 66.1097L0.27417 97.7577C-0.860739 105.974 1.56032 114.19 6.93223 120.276C12.0015 126.058 19.1893 129.405 26.7554 129.405H34.6998C36.3643 142.11 47.1081 152 60.1974 152C73.2866 152 84.0304 142.11 85.6949 129.405H94.2446C101.811 129.405 108.998 126.058 114.068 120.276C119.44 114.114 121.861 105.898 120.726 97.7577H120.953ZM60.3487 136.861C55.5821 136.861 51.6477 133.742 50.2101 129.481H70.4872C69.0497 133.742 65.1153 136.861 60.3487 136.861ZM102.87 110.31C100.676 112.821 97.6494 114.266 94.396 114.266H26.831C23.5776 114.266 20.6269 112.897 18.357 110.31C15.9359 107.496 14.8009 103.616 15.3306 99.8119L19.6433 68.1639C22.5184 46.6344 40.1473 30.3543 60.6513 30.3543C81.1553 30.3543 98.7086 46.6344 101.659 68.1639L105.972 99.8119C106.502 103.616 105.367 107.496 102.946 110.31H102.87Z" fill="white"/>
</svg>
