<svg width="24" height="25" viewBox="0 0 24 25" fill="none" xmlns="http://www.w3.org/2000/svg">
<path d="M18.6667 2.63158V1.31579C18.6667 0.592105 18.0667 0 17.3333 0C16.6 0 16 0.592105 16 1.31579V2.63158H8V1.31579C8 0.592105 7.4 0 6.66667 0C5.93333 0 5.33333 0.592105 5.33333 1.31579V2.63158C2.38667 2.63158 0 4.98684 0 7.89474V19.7368C0 22.6447 2.38667 25 5.33333 25H18.6667C21.6133 25 24 22.6447 24 19.7368V7.89474C24 4.98684 21.6133 2.63158 18.6667 2.63158ZM21.3333 19.7368C21.3333 21.1842 20.1333 22.3684 18.6667 22.3684H5.33333C3.86667 22.3684 2.66667 21.1842 2.66667 19.7368V7.89474C2.66667 6.44737 3.86667 5.26316 5.33333 5.26316V6.57895C5.33333 7.30263 5.93333 7.89474 6.66667 7.89474C7.4 7.89474 8 7.30263 8 6.57895V5.26316H16V6.57895C16 7.30263 16.6 7.89474 17.3333 7.89474C18.0667 7.89474 18.6667 7.30263 18.6667 6.57895V5.26316C20.1333 5.26316 21.3333 6.44737 21.3333 7.89474V19.7368Z" fill="white"/>
</svg>
