<svg width="18" height="18" viewBox="0 0 18 18" fill="none" xmlns="http://www.w3.org/2000/svg">
<path d="M12.5 8H8.875C8.39375 8 8 8.45 8 9C8 9.55 8.39375 10 8.875 10H12.5C12.9813 10 13.375 9.55 13.375 9C13.375 8.45 12.9813 8 12.5 8Z" fill="white"/>
<path d="M9.92969 9.125V4.375C9.92969 3.89375 9.47969 3.5 8.92969 3.5C8.37969 3.5 7.92969 3.89375 7.92969 4.375V9.125C7.92969 9.60625 8.37969 10 8.92969 10C9.47969 10 9.92969 9.60625 9.92969 9.125Z" fill="white"/>
<path d="M13 3.33458e-06H5C2.24 3.33458e-06 1.90735e-06 2.24 1.90735e-06 5V13C1.90735e-06 15.76 2.24 18 5 18H13C15.76 18 18 15.76 18 13V5C18 2.24 15.76 3.33458e-06 13 3.33458e-06ZM16 13C16 14.65 14.65 16 13 16H5C3.35 16 2 14.65 2 13V5C2 3.35 3.35 2 5 2H13C14.65 2 16 3.35 16 5V13Z" fill="white"/>
</svg>
