<svg width="11" height="11" viewBox="0 0 11 11" fill="none" xmlns="http://www.w3.org/2000/svg">
<path d="M5.62877 2.34281C5.62877 2.10611 5.43689 1.91424 5.2002 1.91424C4.9635 1.91424 4.77162 2.10611 4.77162 2.34281V5.19995C4.77162 5.34772 4.84775 5.48506 4.97305 5.56338L6.68734 6.63481C6.88805 6.76026 7.15246 6.69924 7.27791 6.49852C7.40336 6.29781 7.34234 6.0334 7.14162 5.90795L5.62877 4.96242V2.34281Z" fill="white"/>
<path fill-rule="evenodd" clip-rule="evenodd" d="M5.2002 0.199951C2.43877 0.199951 0.200195 2.43853 0.200195 5.19995C0.200195 7.96138 2.43877 10.2 5.2002 10.2C7.96162 10.2 10.2002 7.96138 10.2002 5.19995C10.2002 2.43853 7.96162 0.199951 5.2002 0.199951ZM1.05734 5.19995C1.05734 2.91191 2.91216 1.05709 5.2002 1.05709C7.48823 1.05709 9.34305 2.91191 9.34305 5.19995C9.34305 7.48799 7.48823 9.34281 5.2002 9.34281C2.91216 9.34281 1.05734 7.48799 1.05734 5.19995Z" fill="white"/>
<path d="M5.62877 2.34281C5.62877 2.10611 5.43689 1.91424 5.2002 1.91424C4.9635 1.91424 4.77162 2.10611 4.77162 2.34281V5.19995C4.77162 5.34772 4.84775 5.48506 4.97305 5.56338L6.68734 6.63481C6.88805 6.76026 7.15246 6.69924 7.27791 6.49852C7.40336 6.29781 7.34234 6.0334 7.14162 5.90795L5.62877 4.96242V2.34281Z" stroke="white" stroke-width="0.4" stroke-linecap="round" stroke-linejoin="round"/>
<path fill-rule="evenodd" clip-rule="evenodd" d="M5.2002 0.199951C2.43877 0.199951 0.200195 2.43853 0.200195 5.19995C0.200195 7.96138 2.43877 10.2 5.2002 10.2C7.96162 10.2 10.2002 7.96138 10.2002 5.19995C10.2002 2.43853 7.96162 0.199951 5.2002 0.199951ZM1.05734 5.19995C1.05734 2.91191 2.91216 1.05709 5.2002 1.05709C7.48823 1.05709 9.34305 2.91191 9.34305 5.19995C9.34305 7.48799 7.48823 9.34281 5.2002 9.34281C2.91216 9.34281 1.05734 7.48799 1.05734 5.19995Z" stroke="white" stroke-width="0.4" stroke-linecap="round" stroke-linejoin="round"/>
</svg>
