<svg width="17" height="17" viewBox="0 0 17 17" fill="none" xmlns="http://www.w3.org/2000/svg">
<g clip-path="url(#clip0_2570_2432)">
<rect x="17" y="17" width="17" height="17" rx="8.5" transform="rotate(-180 17 17)" fill="#CDAA41"/>
<path d="M9.72852 8.73437C9.83008 8.75977 9.89779 8.82324 9.93164 8.9248C9.97396 9.0179 9.99512 9.111 9.99512 9.2041C9.99512 9.2972 9.98666 9.38607 9.96973 9.4707C9.9528 9.55534 9.93164 9.64844 9.90625 9.75C9.88932 9.85156 9.86817 9.94889 9.84278 10.042C9.82585 10.1266 9.81315 10.1859 9.80469 10.2197C9.76237 10.2959 9.71159 10.3467 9.65235 10.3721C9.5931 10.3975 9.52962 10.4313 9.46192 10.4736C9.39421 10.516 9.3265 10.5667 9.25879 10.626C9.19108 10.6852 9.12337 10.7191 9.05567 10.7275C9.07259 10.8037 9.07682 10.8545 9.06836 10.8799C9.07682 10.973 9.07682 11.0449 9.06836 11.0957C9.0599 11.138 9.05567 11.1803 9.05567 11.2227C9.03874 11.4596 9.03874 11.6797 9.05567 11.8828C9.08106 12.0775 9.09375 12.2764 9.09375 12.4795C9.00065 12.5303 8.92025 12.5557 8.85254 12.5557C8.81022 12.5557 8.76367 12.5514 8.71289 12.543C8.66211 12.5345 8.61556 12.5303 8.57324 12.5303C8.52246 12.5303 8.47168 12.526 8.4209 12.5176C8.37858 12.5091 8.33203 12.5007 8.28125 12.4922C8.19662 12.4499 8.1543 12.4202 8.1543 12.4033C8.1543 12.3864 8.13737 12.3568 8.10352 12.3145L8.07813 11.667L8.07813 11.248C7.98503 11.3158 7.89193 11.375 7.79883 11.4258C7.70573 11.4681 7.61263 11.5231 7.51953 11.5908C7.48568 11.5824 7.44759 11.5781 7.40528 11.5781C7.36296 11.5781 7.32487 11.5654 7.29102 11.54C7.25716 11.4554 7.22754 11.4089 7.20215 11.4004C7.17676 11.3919 7.1556 11.3792 7.13867 11.3623C7.12175 11.3454 7.11328 11.3242 7.11328 11.2988C7.11328 11.265 7.10482 11.2396 7.08789 11.2227C6.98633 11.1719 6.93555 11.1296 6.93555 11.0957C6.93555 11.0618 6.93132 11.0322 6.92285 11.0068C6.87207 10.9307 6.85091 10.8799 6.85938 10.8545C6.86784 10.8206 6.86361 10.7868 6.84668 10.7529C7.06673 10.5667 7.30794 10.4059 7.57031 10.2705C7.83268 10.1351 8.08659 9.99121 8.33203 9.83887C8.37435 9.80501 8.4209 9.77539 8.47168 9.75C8.53093 9.72461 8.58171 9.69075 8.62403 9.64844C8.68327 9.58919 8.71289 9.52148 8.71289 9.44531C8.41667 9.17448 8.15007 8.93327 7.91309 8.72168C7.68457 8.50163 7.43913 8.29427 7.17676 8.09961C7.13444 8.08268 7.10482 8.05306 7.08789 8.01074C7.07097 7.96842 7.05404 7.93457 7.03711 7.90918C7.02018 7.87533 6.99903 7.85417 6.97363 7.8457C6.94824 7.82878 6.92709 7.81185 6.91016 7.79492C6.89323 7.76953 6.8763 7.73991 6.85938 7.70605C6.85091 7.66374 6.83399 7.63411 6.8086 7.61719C6.77474 7.58333 6.73242 7.56641 6.68164 7.56641C6.63932 7.56641 6.59701 7.54948 6.55469 7.51562C6.58008 7.34635 6.63086 7.20671 6.70703 7.09668C6.78321 6.97819 6.81706 6.85124 6.8086 6.71582C7.00326 6.56348 7.17676 6.4196 7.3291 6.28418C7.48145 6.1403 7.64225 6.00911 7.81153 5.89062C7.76921 5.85677 7.74805 5.83561 7.74805 5.82715C7.74805 5.81022 7.73535 5.78906 7.70996 5.76367L7.69727 5.09082C7.69727 5.03158 7.69304 4.95963 7.68457 4.875C7.68457 4.79036 7.68457 4.70573 7.68457 4.62109C7.68457 4.52799 7.68457 4.43913 7.68457 4.35449C7.69304 4.26986 7.7015 4.19792 7.70996 4.13867C7.74382 4.10482 7.76074 4.07943 7.76074 4.0625C7.76921 4.03711 7.77767 4.02018 7.78613 4.01172C7.7946 3.99479 7.80729 3.9821 7.82422 3.97363C7.84961 3.96517 7.89193 3.95671 7.95117 3.94824C8.00196 3.96517 8.0485 3.9821 8.09082 3.99902C8.15007 3.99902 8.23047 4.01172 8.33203 4.03711C8.4336 4.0625 8.49707 4.09635 8.52246 4.13867C8.55632 4.14713 8.58594 4.15137 8.61133 4.15137C8.64518 4.15137 8.67057 4.16406 8.6875 4.18945C8.6875 4.2487 8.68327 4.29525 8.67481 4.3291C8.68327 4.41374 8.68327 4.48144 8.67481 4.53223C8.66634 4.57454 8.66211 4.62109 8.66211 4.67187C8.65365 4.79036 8.64942 4.89193 8.64942 4.97656C8.65788 5.05273 8.66211 5.13737 8.66211 5.23047C8.69597 5.19661 8.73405 5.15006 8.77637 5.09082C8.82715 5.03158 8.87793 4.97233 8.92871 4.91309C8.97949 4.85384 9.03028 4.80306 9.08106 4.76074C9.13184 4.70996 9.17839 4.68457 9.22071 4.68457C9.2461 4.68457 9.27995 4.7015 9.32227 4.73535C9.36459 4.76921 9.41113 4.80729 9.46192 4.84961C9.5127 4.89193 9.56771 4.93001 9.62696 4.96387C9.6862 4.99772 9.74121 5.01465 9.79199 5.01465C9.86817 5.01465 9.93164 5.03581 9.98242 5.07812C10.0417 5.11198 10.1051 5.14583 10.1729 5.17969C10.1729 5.33203 10.1263 5.48861 10.0332 5.64941C9.94857 5.80176 9.83431 5.89486 9.69043 5.92871C9.59733 6.03874 9.50847 6.12337 9.42383 6.18262C9.34766 6.2334 9.27149 6.29264 9.19531 6.36035C9.153 6.39421 9.11491 6.42806 9.08106 6.46191C9.05567 6.4873 9.02181 6.51693 8.97949 6.55078C8.9541 6.57617 8.89063 6.62695 8.78906 6.70312C8.69597 6.77083 8.5944 6.847 8.48438 6.93164C8.38281 7.00781 8.28972 7.08398 8.20508 7.16016C8.12044 7.22786 8.07813 7.27441 8.07813 7.2998C8.07813 7.32519 8.10775 7.35059 8.16699 7.37598C8.2347 7.3929 8.27702 7.40983 8.29395 7.42676C8.38705 7.49447 8.48861 7.58333 8.59863 7.69336C8.70866 7.79492 8.81022 7.89225 8.90332 7.98535C9.03874 8.1123 9.17839 8.23503 9.32227 8.35352C9.47461 8.46354 9.61003 8.59049 9.72852 8.73437Z" fill="#FFF8EE"/>
</g>
<defs>
<clipPath id="clip0_2570_2432">
<rect x="17" y="17" width="17" height="17" rx="8.5" transform="rotate(-180 17 17)" fill="white"/>
</clipPath>
</defs>
</svg>
