<svg width="24" height="23" viewBox="0 0 24 23" fill="none" xmlns="http://www.w3.org/2000/svg">
<path d="M17.3333 0H6.66667C2.98667 0 0 2.86222 0 6.38889V16.6111C0 20.1378 2.98667 23 6.66667 23H17.3333C21.0133 23 24 20.1378 24 16.6111V6.38889C24 2.86222 21.0133 0 17.3333 0ZM6.66667 2.55556H13.3333V14.0556H2.66667V6.38889C2.66667 4.28056 4.46667 2.55556 6.66667 2.55556ZM2.66667 16.6111H13.3333V20.4444H6.66667C4.46667 20.4444 2.66667 18.7194 2.66667 16.6111ZM21.3333 16.6111C21.3333 18.7194 19.5333 20.4444 17.3333 20.4444H16V8.94444H21.3333V16.6111ZM21.3333 6.38889H16V2.55556H17.3333C19.5333 2.55556 21.3333 4.28056 21.3333 6.38889Z" fill="white"/>
</svg>
