<svg width="14" height="14" viewBox="0 0 14 14" fill="none" xmlns="http://www.w3.org/2000/svg">
<path d="M11.7423 5.08081L8.86646 2.20498C8.57479 1.91331 8.17812 1.75 7.76395 1.75H5.20312C3.27229 1.75 1.70312 3.31917 1.70312 5.25V8.75C1.70312 10.6808 3.27229 12.25 5.20312 12.25H8.70312C10.634 12.25 12.2031 10.6808 12.2031 8.75V6.18916C12.2031 5.77499 12.0398 5.37832 11.7481 5.08665L11.7423 5.08081ZM8.55145 3.54084L10.4123 5.40167H9.48479C8.97146 5.40167 8.55145 5.01084 8.55145 4.52667V3.54084ZM8.69729 11.0775H5.19729C3.90812 11.0775 2.86395 10.0333 2.86395 8.74416V5.24416C2.86395 3.95499 3.90812 2.91083 5.19729 2.91083H7.37895V4.52667C7.37895 5.65251 8.32395 6.56834 9.47895 6.56834H11.0248V8.74416C11.0248 10.0333 9.98061 11.0775 8.69145 11.0775H8.69729Z" fill="white"/>
</svg>
