<svg width="20" height="25" viewBox="0 0 20 25" fill="none" xmlns="http://www.w3.org/2000/svg">
<path d="M10 14.7375C11.0879 14.7377 11.9619 15.6124 11.9619 16.7004C11.9617 17.7881 11.0878 18.6621 10 18.6623C8.91206 18.6623 8.03732 17.7883 8.03711 16.7004C8.03711 15.6123 8.91193 14.7375 10 14.7375Z" fill="#9D9D9D" stroke="#9D9D9D" stroke-width="0.5"/>
<path d="M10 0.5C12.4864 0.5 14.5 2.51364 14.5 5V9.25H15.2373C17.5745 9.25 19.4873 11.152 19.4873 13.5V20.2373C19.4873 22.5745 17.5853 24.4873 15.2373 24.4873H4.75C2.41279 24.4873 0.5 22.5853 0.5 20.2373V13.5C0.5 11.1628 2.402 9.25 4.75 9.25H5.5V5C5.5 2.51364 7.51364 0.5 10 0.5ZM4.7627 10.7627C3.24905 10.7627 2.0127 11.9991 2.0127 13.5127V20.25C2.0127 21.7636 3.24905 23 4.7627 23H15.25C16.7636 23 18 21.7636 18 20.25V13.5127C18 11.9991 16.7636 10.7627 15.25 10.7627H4.7627ZM10 2C8.34886 2 7 3.34886 7 5V9.25H13V5C13 3.34886 11.6511 2 10 2Z" fill="#9D9D9D" stroke="#9D9D9D"/>
</svg>
