<svg width="18" height="17" viewBox="0 0 18 17" fill="none" xmlns="http://www.w3.org/2000/svg">
<path d="M15.6016 8.29374C15.0975 8.29374 14.685 8.70624 14.685 9.21041V11.5479C14.685 13.2896 13.2642 14.7104 11.5225 14.7104H4.99584C3.25418 14.7104 1.83333 13.2896 1.83333 11.5479V5.02123C1.83333 3.27957 3.25418 1.85872 4.99584 1.85872H9.15749C9.66166 1.85872 10.0742 1.44622 10.0742 0.942057C10.0742 0.437891 9.66166 0.0253906 9.15749 0.0253906H4.99584C2.23668 0.0253906 0 2.27124 0 5.02123V11.5479C0 14.3071 2.24584 16.5437 4.99584 16.5437H11.5225C14.2817 16.5437 16.5183 14.2979 16.5183 11.5479V9.21041C16.5183 8.70624 16.1058 8.29374 15.6016 8.29374Z" fill="white"/>
<path d="M16.4269 1.30888L16.0786 0.960539C15.5194 0.401373 15.0611 0.117188 14.6028 0.0255215C14.0986 -0.0661452 13.6403 0.0896882 13.2461 0.483855L6.94861 6.81805C6.68278 7.08389 6.5269 7.44138 6.4994 7.84472L6.34358 9.82469C6.29775 10.1547 6.41691 10.4755 6.68275 10.7414C6.91191 10.9705 7.18695 11.0897 7.46195 11.0897C7.49861 11.0897 7.5261 11.0897 7.56277 11.0897L9.52445 10.9247C9.94611 10.888 10.3219 10.723 10.5969 10.448L16.9128 4.12305C17.0961 3.93972 17.5086 3.51803 17.4078 2.83969C17.3344 2.37219 17.0411 1.91387 16.4269 1.2997V1.30888ZM9.35028 9.10972L8.23191 9.20136L8.32361 8.04635L14.4102 1.92303C14.4927 1.98719 14.6211 2.08802 14.7861 2.26219L15.1344 2.61053C15.2994 2.77553 15.4094 2.89467 15.4736 2.98634L9.35028 9.11884V9.10972Z" fill="white"/>
</svg>
