<svg width="25" height="25" viewBox="0 0 25 25" fill="none" xmlns="http://www.w3.org/2000/svg">
<path d="M14.8116 9.63589H18.6472M14.8116 9.63589V5.78536M14.8116 9.63589L12.0992 12.3592M14.8116 9.63589L14.8112 6.41715M14.8116 9.63589L18.0177 9.63582M18.6472 9.63589L23.25 5.01526M18.6472 9.63589L21.4455 6.82636M18.6472 9.63589L18.0177 9.63582M23.25 5.01526H19.4143L19.3293 1.25006M23.25 5.01526L21.4455 6.82636M19.3293 1.25006L14.8116 5.78536M19.3293 1.25006L17.6097 2.97594M14.8116 5.78536L17.6097 2.97594M14.8116 5.78536L14.8112 6.41715M17.6097 2.97594C15.9946 2.01793 14.1107 1.46819 12.0989 1.46819C6.1072 1.46819 1.25 6.34422 1.25 12.3591C1.25 18.374 6.1072 23.2501 12.0989 23.2501C18.0905 23.2501 22.9477 18.374 22.9477 12.3591C22.9477 10.3393 22.4 8.44784 21.4455 6.82636M14.8112 6.41715C13.9855 6.03668 13.0669 5.82456 12.0989 5.82456C8.50387 5.82456 5.58955 8.75018 5.58955 12.3591C5.58955 15.9681 8.50387 18.8937 12.0989 18.8937C15.6939 18.8937 18.6082 15.9681 18.6082 12.3591C18.6082 11.3872 18.3968 10.4648 18.0177 9.63582" stroke="white" stroke-width="2.5" stroke-linecap="round" stroke-linejoin="round"/>
</svg>
