<svg width="23" height="28" viewBox="0 0 23 28" fill="none" xmlns="http://www.w3.org/2000/svg">
<path d="M13.5457 10.917C12.3372 12.7295 11.1292 15.7504 11.1292 19.9795M13.5457 10.917C12.3374 12.7295 11.7333 15.1462 6.29577 15.1462M13.5457 10.917C15.0736 8.87993 17.46 7.27211 19.9813 6.81732C20.7161 6.68477 21.2882 6.0174 21.1654 5.28088L20.964 4.07255C20.8669 3.48991 20.362 3.05625 19.7754 3.1259C16.88 3.4697 13.284 5.20258 11.1291 7.8962C11.1291 6.68787 11.1291 3.06287 10.5249 1.25037M5.6916 7.29203C5.08743 5.47953 3.8791 4.2712 2.0666 4.2712M1.46249 16.3511C2.67075 21.7886 7.30329 25.9988 10.5248 25.9988C13.7464 25.9988 18.1784 21.789 19.5875 16.3511C20.9966 10.9132 16.5667 7.2886 13.5458 10.9136C13.5458 9.10522 11.7333 7.29213 8.10833 7.29213C4.48333 7.29213 0.254228 10.9136 1.46249 16.3511Z" stroke="#9D9D9D" stroke-width="2.5" stroke-linecap="round" stroke-linejoin="round"/>
</svg>
