<svg width="21" height="23" viewBox="0 0 21 23" fill="none" xmlns="http://www.w3.org/2000/svg">
<path d="M8.8762 5.17743L8.87625 5.17841C9.22835 5.15989 9.31516 5.15581 9.35996 5.15306C9.40941 5.15002 9.41007 5.14945 9.65052 5.13685C9.89146 5.12422 9.89264 5.12469 9.94217 5.12255C9.98701 5.1206 10.0738 5.11558 10.4259 5.0972L10.4258 5.09622L10.5263 5.09096C12.5093 4.98717 14.2051 6.41541 14.3037 8.29609L14.6921 15.7078C14.7906 17.5884 13.2533 19.1862 11.2704 19.2902L4.27027 19.6571C2.28722 19.761 0.591511 18.3326 0.492855 16.4519L0.104424 9.04024C0.00585778 7.15948 1.54301 5.56175 3.52612 5.45782L8.8762 5.17743ZM4.11664 7.26533C4.08952 7.26746 4.07571 7.26827 4.06891 7.26881L4.06208 7.26916L4.06116 7.27019C4.06022 7.27027 4.05832 7.27026 4.0553 7.2705C4.04841 7.27104 4.03461 7.27185 4.00757 7.27398C3.95295 7.27828 3.8438 7.28659 3.62579 7.30376L3.62287 7.30392C2.70973 7.35177 2.00961 8.09297 2.0539 8.93808L2.44233 16.3498C2.48671 17.1948 3.26039 17.8579 4.17347 17.81L11.1736 17.4431C12.0866 17.3952 12.7868 16.6549 12.7426 15.81L12.3542 8.39826C12.3101 7.55685 11.5426 6.89498 10.6347 6.93644C10.1959 6.94829 10.0953 6.95339 10.0472 6.95843C9.99596 6.96382 9.99135 6.97016 9.74727 6.98295L8.8725 7.0288L5.37124 7.1898L4.49939 7.23549L4.11664 7.26533Z" fill="white" stroke="white" stroke-width="0.2"/>
<path d="M15.5075 0.385551C15.5091 0.38564 15.5107 0.386614 15.5123 0.386781C15.9457 0.40949 16.0431 0.415038 16.0916 0.41714C16.141 0.419283 16.1417 0.418791 16.3823 0.431396C16.6219 0.443954 16.6229 0.444538 16.6718 0.44755C16.7203 0.450529 16.818 0.455208 17.2521 0.47796C17.2536 0.477971 17.2555 0.47716 17.257 0.477241L17.4411 0.490801C19.3311 0.680973 20.7684 2.23529 20.6731 4.05448L20.2852 11.4564C20.1999 13.0833 19.1072 14.3845 17.5073 14.623C17.0191 14.6958 16.605 14.3486 16.4635 13.9024C16.294 13.368 16.5428 12.7967 17.0557 12.5663C17.4111 12.4066 17.7261 12.2522 17.9565 12.06C18.1829 11.8711 18.3221 11.6503 18.3377 11.3544L18.7256 3.95242C18.7664 3.17135 18.1708 2.48 17.3587 2.34352L17.1935 2.32313L17.1584 2.32129L17.1585 2.32031C16.7325 2.28718 16.6333 2.28248 16.5855 2.28246C16.5341 2.28246 16.529 2.2883 16.2856 2.27554L15.4108 2.2297L11.9169 2.02312L11.046 1.97748L10.1709 1.95509L10.169 1.95499C9.85185 1.93837 9.62758 1.97651 9.4624 2.05877C9.29981 2.13978 9.18361 2.2685 9.0916 2.45397C8.89175 2.85697 8.51625 3.20513 8.03166 3.17977C7.44581 3.14906 6.99189 2.59779 7.18296 2.02048C7.43532 1.25846 7.78716 0.752011 8.29589 0.451575C8.80177 0.15285 9.4473 0.0679504 10.2656 0.110838L15.5075 0.385551ZM17.1613 0.531874C17.1552 0.543651 17.1511 0.55729 17.1503 0.572373C17.1518 0.544251 17.1651 0.519936 17.1843 0.502767L17.1613 0.531874Z" fill="white" stroke="white" stroke-width="0.2"/>
<path d="M2.57298 13.5012C3.77318 11.7871 6.04261 11.291 7.64805 12.4149L14.0613 16.9055L12.8856 18.5846L6.47233 14.094C5.74945 13.5881 4.69933 13.8066 4.14328 14.6007L4.14272 14.6015L4.14192 14.601C3.87351 14.9647 3.81407 15.051 3.78712 15.0941C3.75825 15.1402 3.7606 15.1473 3.61284 15.3583L3.08183 16.1167L2.01078 17.6258L1.86355 17.8327L1.8303 17.5805L1.49607 15.0886L1.49128 15.0494L1.51368 15.0174C1.77845 14.6393 1.83768 14.5538 1.86689 14.5113C1.89652 14.4682 1.89643 14.4674 2.04253 14.2588C2.18862 14.0501 2.18938 14.0499 2.21977 14.0073C2.24745 13.9685 2.30085 13.8931 2.51744 13.5839L2.51584 13.5828L2.57298 13.5012Z" fill="white" stroke="white" stroke-width="0.2"/>
<circle cx="9.53223" cy="9.52686" r="1.4" fill="white" stroke="white" stroke-width="0.2"/>
</svg>
