<svg width="18" height="23" viewBox="0 0 18 23" fill="none" xmlns="http://www.w3.org/2000/svg">
<path d="M18 9.00695C18 4.04391 13.9592 0 9 0C4.04081 0 0 4.04391 0 9.00695C0 12.2122 1.7334 15.1533 4.46555 16.7617L4.4426 18.485C4.4426 20.978 6.463 23 8.95407 23C11.4451 23 13.4656 20.978 13.4656 18.485V16.8077C16.2322 15.2108 18 12.2467 18 9.00695ZM11.1697 18.485C11.1697 19.7027 10.1709 20.7023 8.95407 20.7023C7.73723 20.7023 6.73852 19.7027 6.73852 18.485V17.2902H11.1697V18.485ZM12.0306 14.9925H10.148V9.2138C10.148 8.58193 9.63138 8.06495 9 8.06495C8.36862 8.06495 7.85204 8.58193 7.85204 9.2138V14.9925H5.96937C3.73085 13.8551 2.29592 11.5344 2.29592 9.00695C2.29592 5.30765 5.30357 2.2977 9 2.2977C12.6964 2.2977 15.7041 5.30765 15.7041 9.00695C15.7041 11.5344 14.2692 13.8551 12.0306 14.9925Z" fill="white"/>
</svg>
