<svg width="25" height="23" viewBox="0 0 25 23" fill="none" xmlns="http://www.w3.org/2000/svg">
<path d="M12.25 17.0241V4.63017M12.25 17.0241C12.25 14.535 14.22 12.5172 16.65 12.5172M12.25 17.0241C12.25 14.535 10.2801 12.5172 7.85001 12.5172M12.25 17.0241C12.25 18.1509 12.4001 18.568 12.8 19.2776C13.8632 21.1637 16.2178 21.81 18.0592 20.721C19.7478 19.7224 20.4185 17.6116 19.6985 15.8137C21.7225 15.4087 23.25 13.5823 23.25 11.3905C23.25 8.90142 21.2801 6.88362 18.85 6.88362L18.85 4.63017C18.85 2.76335 17.3726 1.25 15.55 1.25C13.7275 1.25 12.25 2.76335 12.25 4.63017M12.25 17.0241C12.25 18.1509 12.1 18.568 11.7 19.2776C10.6369 21.1637 8.28224 21.81 6.44081 20.721C4.75228 19.7225 4.08158 17.6116 4.80156 15.8137C2.7775 15.4087 1.25003 13.5823 1.25003 11.3905C1.25003 8.90142 3.21998 6.88362 5.65004 6.88362L5.65001 4.63017C5.65001 2.76335 7.12747 1.25 8.95001 1.25C10.7726 1.25 12.25 2.76335 12.25 4.63017" stroke="white" stroke-width="2.5" stroke-linecap="round" stroke-linejoin="round"/>
</svg>
