<svg width="28" height="29" viewBox="0 0 28 29" fill="none" xmlns="http://www.w3.org/2000/svg">
<path d="M3.75 27.25V21.6353C3.75 20.4736 3.32127 19.3676 2.74903 18.3614C1.79555 16.6848 1.25 14.7394 1.25 12.6646C1.25 6.36051 6.2868 1.25 12.5 1.25C18.6326 1.25 23.6191 6.19242 23.7475 13.0283C23.7508 13.2057 23.7867 13.3826 23.8577 13.5447L26.25 19.0061L23.75 20.2744C22.5 24.7134 22.75 25.9817 18.75 25.9817C14.75 25.9817 14.375 25.3476 13.75 23.4451M11.25 17.7378C11.25 16.3369 12.3693 15.2012 13.75 15.2012C15.4759 15.2012 16.875 13.7816 16.875 12.0305M16.875 12.0305C17.9105 12.0305 18.75 11.1787 18.75 10.128C18.75 9.07736 17.9105 8.22561 16.875 8.22561C16.6086 8.22561 16.3552 8.28198 16.1257 8.38361C16.2064 8.13437 16.25 7.86809 16.25 7.59146C16.25 6.19055 15.1307 5.05488 13.75 5.05488C12.5668 5.05488 11.5756 5.88881 11.3162 7.00898M16.875 12.0305C16.3197 12.0305 15.8208 11.7855 15.4774 11.3963M6.52454 10.7954C5.6565 10.9619 5 11.7355 5 12.6646C5 13.7153 5.83947 14.5671 6.875 14.5671C7.69139 14.5671 8.38591 14.0377 8.64331 13.2988M6.52454 10.7954C6.63807 10.7736 6.75522 10.7622 6.875 10.7622M6.52454 10.7954C6.34815 10.3983 6.25 9.95772 6.25 9.4939C6.25 7.74276 7.64911 6.32317 9.375 6.32317C10.1086 6.32317 10.7831 6.57962 11.3162 7.00898M11.3162 7.00898C12.0375 7.5898 12.5 8.48704 12.5 9.4939" stroke="#9D9D9D" stroke-width="2.5" stroke-linecap="round" stroke-linejoin="round"/>
</svg>
