<svg width="27" height="22" viewBox="0 0 27 22" fill="none" xmlns="http://www.w3.org/2000/svg">
<circle cx="13.5127" cy="5.5" r="4.15" stroke="#F2F2F7" stroke-width="2.7" stroke-linecap="round"/>
<path d="M17.9845 5.4875C18.3525 4.85013 18.9586 4.38504 19.6695 4.19456C20.3804 4.00408 21.1378 4.1038 21.7752 4.47178C22.4126 4.83977 22.8777 5.44588 23.0681 6.15678C23.2586 6.86768 23.1589 7.62513 22.7909 8.2625C22.4229 8.89988 21.8168 9.36496 21.1059 9.55545C20.395 9.74593 19.6376 9.64621 19.0002 9.27822C18.3628 8.91024 17.8977 8.30412 17.7073 7.59323C17.5168 6.88233 17.6165 6.12488 17.9845 5.4875L17.9845 5.4875Z" stroke="#F2F2F7" stroke-width="2.7"/>
<path d="M4.23447 5.4875C4.60246 4.85013 5.20857 4.38504 5.91947 4.19456C6.63037 4.00408 7.38782 4.1038 8.0252 4.47178C8.66257 4.83977 9.12765 5.44588 9.31814 6.15678C9.50862 6.86768 9.4089 7.62513 9.04092 8.2625C8.67293 8.89988 8.06682 9.36496 7.35592 9.55545C6.64502 9.74593 5.88757 9.64621 5.2502 9.27822C4.61282 8.91024 4.14774 8.30412 3.95725 7.59323C3.76677 6.88233 3.86649 6.12488 4.23447 5.4875L4.23447 5.4875Z" stroke="#F2F2F7" stroke-width="2.7"/>
<path d="M20.248 13.75V12.4H20.2479L20.248 13.75ZM25.2432 17.8994L26.5334 17.5021L26.5334 17.502L25.2432 17.8994ZM24.3662 19V20.35L24.3668 20.35L24.3662 19ZM20.0928 19L18.7693 19.2666L18.9876 20.35H20.0928V19ZM17.3369 14.6826L16.5205 13.6074L14.959 14.7931L16.6237 15.8289L17.3369 14.6826ZM20.248 13.75V15.1C22.5324 15.1 23.5157 16.8772 23.953 18.2968L25.2432 17.8994L26.5334 17.502C26.0223 15.8426 24.4416 12.4 20.248 12.4V13.75ZM25.2432 17.8994L23.9529 18.2967C23.9019 18.131 23.9457 17.9398 24.0514 17.8106C24.1466 17.6941 24.2697 17.65 24.3656 17.65L24.3662 19L24.3668 20.35C25.7233 20.3494 27.021 19.0856 26.5334 17.5021L25.2432 17.8994ZM24.3662 19V17.65H20.0928V19V20.35H24.3662V19ZM20.0928 19L21.4162 18.7335C21.1294 17.3097 20.3311 14.9556 18.0501 13.5364L17.3369 14.6826L16.6237 15.8289C17.974 16.6689 18.5414 18.1349 18.7693 19.2666L20.0928 19ZM17.3369 14.6826L18.1533 15.7578C18.6518 15.3793 19.3151 15.1001 20.2482 15.1L20.248 13.75L20.2479 12.4C18.7148 12.4001 17.4802 12.8788 16.5205 13.6074L17.3369 14.6826Z" fill="#F2F2F7"/>
<path d="M6.1377 13.75L6.13773 12.4H6.1377V13.75ZM9.31348 14.9834L10.1161 16.0689L11.4008 15.1189L10.2498 14.0108L9.31348 14.9834ZM6.91797 18.75V20.1H7.96032L8.22404 19.0916L6.91797 18.75ZM1.39648 17.6504L0.108981 17.2444L0.108767 17.2451L1.39648 17.6504ZM6.1377 13.75L6.13766 15.1C7.1796 15.1 7.87353 15.4711 8.37719 15.956L9.31348 14.9834L10.2498 14.0108C9.28078 13.078 7.92867 12.4001 6.13773 12.4L6.1377 13.75ZM9.31348 14.9834L8.51083 13.8979C6.74928 15.2005 5.96616 17.0538 5.61189 18.4084L6.91797 18.75L8.22404 19.0916C8.49679 18.0486 9.04394 16.8617 10.1161 16.0689L9.31348 14.9834ZM6.91797 18.75V17.4H2.27051V18.75V20.1H6.91797V18.75ZM2.27051 18.75V17.4C2.36648 17.4 2.49009 17.4439 2.58607 17.5615C2.69294 17.6924 2.7373 17.887 2.6842 18.0557L1.39648 17.6504L0.108767 17.2451C-0.391865 18.8356 0.917539 20.1 2.27051 20.1V18.75ZM1.39648 17.6504L2.68399 18.0564C3.10756 16.7132 4.03179 15.1 6.1377 15.1V13.75V12.4C2.14625 12.4 0.613826 15.6434 0.108981 17.2444L1.39648 17.6504Z" fill="#F2F2F7"/>
<path d="M13.5127 13.75C18.7429 13.75 19.9942 17.7289 20.2935 19.6327C20.3793 20.1783 19.94 20.625 19.3877 20.625H7.6377C7.08541 20.625 6.64606 20.1783 6.73184 19.6327C7.03122 17.7289 8.28253 13.75 13.5127 13.75Z" stroke="#F2F2F7" stroke-width="2.7" stroke-linecap="round"/>
</svg>
