<svg width="16" height="13" viewBox="0 0 16 13" fill="none" xmlns="http://www.w3.org/2000/svg">
<path d="M5.63672 0.351562C5.98949 0.0634978 6.50886 0.0839377 6.83789 0.413086C7.16676 0.742169 7.18721 1.26144 6.89941 1.61426L6.83789 1.68262L3.11426 5.40039H14.6045L14.6152 5.41113C15.0803 5.44473 15.4502 5.83525 15.4502 6.30859C15.45 6.80366 15.0449 7.20801 14.5498 7.20801H3.12109L6.84473 10.9189L6.90723 10.9873C7.19488 11.3402 7.17363 11.8595 6.84473 12.1885L6.84277 12.1914C6.66596 12.3594 6.44162 12.4501 6.20703 12.4502C5.97246 12.4502 5.74812 12.3594 5.57129 12.1914L5.56836 12.1885L0.494141 7.12695H0.493164C0.288838 6.92252 0.188803 6.65463 0.167969 6.3916C0.166232 6.38655 0.163076 6.38089 0.161133 6.37402L0.149414 6.30078L0.158203 6.24414C0.161832 6.23114 0.165102 6.22139 0.166992 6.2168C0.186572 5.95155 0.287064 5.68084 0.493164 5.47461H0.494141L5.56836 0.413086L5.63672 0.351562Z" fill="white" stroke="white" stroke-width="0.3"/>
</svg>
