<svg width="11" height="13" viewBox="0 0 11 13" fill="none" xmlns="http://www.w3.org/2000/svg">
<path fill-rule="evenodd" clip-rule="evenodd" d="M0.117878 4.5168C0.326162 2.02086 2.43773 0.0999756 4.97315 0.0999756H5.22705C7.76247 0.0999756 9.87403 2.02086 10.0823 4.5168C10.1942 5.85758 9.77492 7.18892 8.91278 8.2304L6.09528 11.634C5.58093 12.2553 4.61927 12.2553 4.10492 11.634L1.28742 8.2304C0.425278 7.18892 0.00599145 5.85758 0.117878 4.5168ZM4.97315 0.970932C2.89662 0.970932 1.16723 2.54416 0.99664 4.58835C0.90352 5.70424 1.25248 6.81228 1.97002 7.67908L4.78752 11.0827C4.94907 11.2778 5.25112 11.2778 5.41268 11.0826L8.23018 7.67908C8.94772 6.81228 9.29668 5.70424 9.20356 4.58835C9.03297 2.54416 7.30358 0.970932 5.22705 0.970932H4.97315Z" fill="white" stroke="white" stroke-width="0.2"/>
<path d="M5.1001 4.09998C5.6501 4.09998 6.1001 4.54998 6.1001 5.09998C6.1001 5.64998 5.6501 6.09998 5.1001 6.09998C4.5501 6.09998 4.1001 5.64998 4.1001 5.09998C4.1001 4.54998 4.5501 4.09998 5.1001 4.09998ZM5.1001 3.09998C3.9951 3.09998 3.1001 3.99498 3.1001 5.09998C3.1001 6.20498 3.9951 7.09998 5.1001 7.09998C6.2051 7.09998 7.1001 6.20498 7.1001 5.09998C7.1001 3.99498 6.2051 3.09998 5.1001 3.09998Z" fill="white"/>
</svg>
