<svg width="24" height="27" viewBox="0 0 24 27" fill="none" xmlns="http://www.w3.org/2000/svg">
<path fill-rule="evenodd" clip-rule="evenodd" d="M12.3174 0.785509C11.8323 0.219704 11.0985 -0.0691668 10.3579 0.0141138C9.61724 0.0973946 8.96591 0.542019 8.61858 1.20143C8.27403 1.85554 7.93647 2.74692 7.79974 3.72199C7.76513 3.96881 7.74151 4.23597 7.73704 4.51677C5.73582 5.63713 3.98957 7.81598 3.12516 11.2736C3.06457 11.516 2.99742 11.6391 2.93693 11.7298C2.85178 11.8575 2.74218 11.9814 2.46158 12.2801C1.91562 12.8611 1.15146 13.6747 0.452573 15.1889C-0.614005 17.4999 0.326808 19.8476 2.00091 21.0395C2.98607 21.7409 4.20945 22.0473 5.4284 21.8535C5.23752 22.67 5.17137 23.4105 5.20074 23.9432C5.26652 25.1359 6.25283 26.0693 7.44733 26.0693H21.433C22.6756 26.0693 23.683 25.0619 23.683 23.8193C23.683 19.3764 23.3983 14.9486 22.1953 11.4197C21.0418 8.03608 18.9189 5.18314 15.2246 4.17625L12.3174 0.785509ZM2.49548 16.1318C3.04156 14.9486 3.60832 14.3455 4.10131 13.8208C4.62394 13.2646 5.06367 12.7966 5.30798 11.8193C5.93904 9.29508 7.05841 7.75138 8.23722 6.87082C8.63453 6.57403 9.03859 6.35258 9.43298 6.19431C9.67821 6.0959 9.99526 6.03978 10.327 6.01024C10.148 5.69963 10.0485 5.35768 10.0079 5.00539C9.96098 4.59802 9.99285 4.17682 10.0718 3.77425C10.1852 3.19552 10.3958 2.6553 10.6093 2.25002L13.997 6.20124C19.7252 7.27942 21.1938 13.735 21.4044 21.5693C21.4243 22.3082 21.433 23.0593 21.433 23.8193H7.44733C7.44297 23.7403 7.44269 23.6455 7.44733 23.5371C7.46732 23.0698 7.57874 22.3508 7.84962 21.5693C8.02536 21.0623 8.26822 20.529 8.59677 20.021C9.02651 19.3566 9.60287 18.7355 10.3674 18.2734C10.4435 18.2274 10.5174 18.1805 10.589 18.1328C12.8324 16.6378 12.921 14.3195 12.6727 13.3193C12.1344 15.532 11.1812 15.9821 9.86655 16.603C9.73833 16.6636 9.60668 16.7258 9.47164 16.7914C8.71268 17.16 7.84666 17.6366 6.88234 18.5395C6.79584 18.6204 6.70856 18.7049 6.62048 18.7929C4.4066 21.0068 1.37048 18.5693 2.49548 16.1318Z" fill="#9D9D9D"/>
</svg>
