<svg width="19" height="16" viewBox="0 0 19 16" fill="none" xmlns="http://www.w3.org/2000/svg">
<path d="M17.1712 10.65L8.75119 10.65C8.30119 9.34026 7.09121 8.39603 5.64121 8.39603C4.19121 8.39603 2.9912 9.34026 2.5412 10.65L1.06119 10.65C0.51119 10.65 0.0611896 11.1068 0.0611896 11.6652C0.0611896 12.2236 0.51119 12.6805 1.06119 12.6805L2.49121 12.6805C2.89121 14.0816 4.14122 15.107 5.65122 15.107C7.16122 15.107 8.40121 14.0816 8.80121 12.6805L17.1712 12.6805C17.7212 12.6805 18.1712 12.2236 18.1712 11.6652C18.1712 11.1068 17.7212 10.65 17.1712 10.65V10.65ZM5.65122 13.0765C4.93122 13.0765 4.3512 12.4876 4.3512 11.7465C4.3512 11.0053 4.93122 10.4266 5.65122 10.4266C6.37122 10.4266 6.9512 11.0154 6.9512 11.7566C6.9512 12.4977 6.37122 13.0765 5.65122 13.0765Z" fill="white"/>
<path d="M1.00064 4.56873L8.21066 4.56873C8.64066 6.04087 9.96066 7.11706 11.5507 7.11706C13.1407 7.11706 14.4507 6.04087 14.8907 4.56873L17.1107 4.56873C17.6607 4.56873 18.1107 4.11186 18.1107 3.55346C18.1107 2.99507 17.6607 2.5382 17.1107 2.5382L14.8907 2.5382C14.4607 1.07621 13.1307 2.90814e-05 11.5507 2.90833e-05C9.97066 2.90852e-05 8.65064 1.07621 8.22064 2.5382L1.00064 2.5382C0.450643 2.5382 0.000642772 2.99507 0.000642771 3.55346C0.000642771 4.11186 0.450643 4.56873 1.00064 4.56873V4.56873ZM11.5507 2.03056C12.3807 2.03056 13.0507 2.7108 13.0507 3.56363C13.0507 4.41645 12.3807 5.08653 11.5507 5.08653C10.7207 5.08653 10.0507 4.40629 10.0507 3.55346C10.0507 2.70064 10.7207 2.03056 11.5507 2.03056Z" fill="white"/>
</svg>
