<svg width="16" height="20" viewBox="0 0 16 20" fill="none" xmlns="http://www.w3.org/2000/svg">
<path d="M14.6714 10.47L11.2414 8.03998V6.08997L13.8614 4.01996C14.3414 3.63996 14.6114 3.08998 14.6114 2.47998V1.95996C14.6114 0.879961 13.7214 0 12.6314 0H2.44137C1.35137 0 0.46139 0.879961 0.46139 1.95996V2.62C0.46139 3.24 0.761388 3.82995 1.27139 4.19995L3.83139 6.03998L3.85137 8L0.811366 10.2C0.321366 10.56 0.0113683 11.14 0.00136826 11.74V12.01C-0.0186317 12.54 0.181387 13.04 0.551387 13.41C0.931387 13.79 1.43137 14 1.97137 14H6.70138V19C6.70138 19.55 7.15138 20 7.70138 20C8.25138 20 8.70138 19.55 8.70138 19V14H13.5114C14.5914 14 15.4814 13.1199 15.4914 12.0499C15.4914 11.4199 15.1914 10.82 14.6714 10.45V10.47ZM2.00137 12.02V11.83L5.03137 9.63C5.54137 9.26 5.84136 8.66999 5.84136 8.04999V6.04999C5.84136 5.42999 5.54137 4.83997 5.03137 4.46997L2.47137 2.63L2.45138 2.01001L12.6214 1.96997V2.45996L10.0014 4.52997C9.52137 4.89997 9.25137 5.46001 9.25137 6.07001V8.04999C9.25137 8.67999 9.56138 9.26995 10.0714 9.63995L13.5214 12.03H2.01138L2.00137 12.02Z" fill="white"/>
</svg>
