<svg width="22" height="22" viewBox="0 0 22 22" fill="none" xmlns="http://www.w3.org/2000/svg">
<path d="M13.9205 19.4811L13.3184 14.626L14.9889 13.1218L18.8123 13.8019C19.5135 13.9259 20.1959 13.7363 20.7185 13.2658L21.164 12.8646C22.0892 12.0316 22.1466 10.5793 21.2938 9.63212L13.3204 0.77686C12.4676 -0.170366 11.0173 -0.265 10.0921 0.568075L9.52666 1.0772C8.99551 1.55545 8.72484 2.27122 8.80692 2.99983L9.2337 6.64383L7.57021 8.1731L3.30684 7.22825C2.61503 7.08013 1.87555 7.25816 1.35372 7.71229L1.12239 7.92057C0.652699 8.31201 0.38084 8.87153 0.353377 9.47847C0.325172 10.1018 0.536515 10.6983 0.959046 11.1675L4.66011 15.278L0.376669 19.1348C-0.0945098 19.5591 -0.12791 20.2972 0.302445 20.7752C0.7328 21.2532 1.47042 21.2971 1.9416 20.8728L6.22504 17.016L9.98869 21.196C10.8338 22.1345 12.2841 22.2291 13.2086 21.4124C13.7483 20.9265 14.0275 20.2029 13.9376 19.4657L13.9205 19.4811Z" fill="#AFAFAF"/>
</svg>
