<svg width="23" height="22" viewBox="0 0 23 22" fill="none" xmlns="http://www.w3.org/2000/svg">
<path d="M5.85743 22C5.45788 22 5.04659 21.8834 4.69404 21.6386C4.05946 21.1956 3.73042 20.4495 3.84793 19.6801L4.68228 14.2476L0.63976 10.4822C0.0756879 9.9576 -0.135841 9.16488 0.0874379 8.43044C0.310716 7.69601 0.93354 7.15975 1.69739 7.03152L7.16187 6.13388L9.52389 1.15605C9.85294 0.456583 10.5463 0.0135891 11.3219 0.00193141C12.1092 -0.0330417 12.8026 0.409951 13.1669 1.0861L15.717 5.97067L21.2167 6.65847C21.9923 6.75174 22.6268 7.26468 22.8853 7.99911C23.1439 8.73355 22.9559 9.52627 22.4153 10.0742L18.5138 13.9795L19.5479 19.377C19.6889 20.1348 19.3952 20.8925 18.7723 21.3588C18.1495 21.8251 17.3386 21.8951 16.6453 21.5454L11.6979 19.0739L6.84455 21.7202C6.53901 21.8834 6.19824 21.9767 5.86919 21.9767L5.85743 22ZM2.73153 9.22317L6.42152 12.6622C6.91508 13.1168 7.13834 13.7813 7.03258 14.4342L6.26874 19.4003L10.699 16.9872C11.2866 16.6724 11.9917 16.6608 12.5911 16.9522L17.1154 19.2022L16.1635 14.271C16.046 13.6181 16.2457 12.9536 16.7158 12.4873L20.2765 8.92007L15.2586 8.29055C14.6005 8.20895 14.013 7.80093 13.7074 7.21804L11.3807 2.75315L9.23011 7.29965C8.94807 7.89419 8.384 8.32553 7.72592 8.43044L2.73153 9.24648V9.22317Z" fill="#E5E5EA"/>
</svg>
