<svg width="12" height="10" viewBox="0 0 12 10" fill="none" xmlns="http://www.w3.org/2000/svg">
<path d="M11.4956 3.0625C11.2623 2.84083 10.8948 2.84084 10.6731 3.07418L9.94393 3.82084V1.61584C9.94393 0.723345 9.2381 0 8.3631 0H3.3406C2.47143 0 1.75977 0.723345 1.75977 1.61584V1.87833C1.75977 2.19917 2.02227 2.46167 2.3431 2.46167C2.66393 2.46167 2.92643 2.19917 2.92643 1.87833V1.61584C2.92643 1.36501 3.1131 1.16667 3.3406 1.16667H8.3631C8.5906 1.16667 8.77726 1.37084 8.77726 1.61584V3.87918L7.9956 3.07418C7.77393 2.84084 7.4006 2.835 7.1731 3.0625C6.9456 3.29 6.93393 3.6575 7.16143 3.885L8.8531 5.62334C8.9756 5.75751 9.15643 5.83333 9.33726 5.83333C9.5181 5.83333 9.6931 5.75751 9.82143 5.62918L11.5131 3.885C11.7348 3.65167 11.7348 3.28417 11.5014 3.0625H11.4956Z" fill="#A3A3A3"/>
<path d="M9.34287 6.8428C9.02204 6.8428 8.75954 7.1053 8.75954 7.42613V7.72363C8.75954 7.96863 8.57287 8.16696 8.33954 8.16696H3.34037C3.11287 8.16696 2.92038 7.96863 2.92038 7.72363V5.4778L3.66704 6.24196C3.78371 6.35863 3.93537 6.41696 4.08121 6.41696C4.22704 6.41696 4.37287 6.36447 4.48954 6.2478C4.71704 6.0203 4.72287 5.6528 4.50121 5.4253L2.81538 3.70446C2.56454 3.44196 2.09787 3.44779 1.85287 3.70446L0.167041 5.43112C-0.0604587 5.65862 -0.0546251 6.03196 0.178708 6.25362C0.412042 6.48112 0.779541 6.4753 1.00121 6.24196L1.75371 5.47196V7.72363C1.75371 8.6103 2.46537 9.33362 3.34037 9.33362H8.33954C9.21454 9.33362 9.92621 8.6103 9.92621 7.72363V7.42613C9.92621 7.1053 9.66371 6.8428 9.34287 6.8428Z" fill="#A3A3A3"/>
</svg>
