<svg width="14" height="16" viewBox="0 0 14 16" fill="none" xmlns="http://www.w3.org/2000/svg">
<path d="M6.45801 0.347656C6.7887 0.0173002 7.32354 0.01741 7.6543 0.347656L9.63672 2.32031L9.63672 2.32129C10.0044 2.68906 10.0044 3.29725 9.63672 3.66504L9.63672 3.66602L7.6543 5.63867L7.65234 5.64063C7.48488 5.79943 7.27348 5.88473 7.05273 5.88477C6.83424 5.88477 6.62105 5.80823 6.45117 5.63867C6.12037 5.30817 6.12037 4.77386 6.45117 4.44336L7.14551 3.75391C4.92319 3.56602 2.77114 4.90776 2.03906 7.11621C1.62851 8.36906 1.7236 9.70168 2.31738 10.8809C2.91111 12.0599 3.92225 12.9308 5.17578 13.3486C6.42994 13.759 7.7649 13.6637 8.94531 13.0703C10.1256 12.4769 10.9981 11.4666 11.416 10.2139C11.6021 9.65613 11.687 9.08193 11.666 8.50098L11.6504 8.25195C11.6105 7.81359 11.9146 7.42965 12.3359 7.34863L12.4219 7.33594C12.8602 7.28938 13.2421 7.59851 13.3252 8.01563L13.3379 8.01563L13.3457 8.10742C13.4217 9.00283 13.315 9.89109 13.0342 10.748C12.5144 12.32 11.4401 13.6182 10.0068 14.4307L9.71582 14.5869C8.77411 15.0649 7.75604 15.2998 6.73828 15.2998C6.03952 15.2998 5.33346 15.1864 4.65039 14.959C1.17969 13.8132 -0.711209 10.0496 0.435547 6.58203C0.99001 4.90531 2.17485 3.53957 3.75391 2.74316L3.95996 2.64453C4.91552 2.20669 5.94005 2.01038 6.96484 2.04883L6.45801 1.54297C6.12748 1.21244 6.1273 0.678068 6.45801 0.347656Z" fill="white" stroke="white" stroke-width="0.2"/>
</svg>
