<svg width="16" height="16" viewBox="0 0 16 16" fill="none" xmlns="http://www.w3.org/2000/svg">
<path d="M15.7251 14.4424L13.0899 11.8007C14.0804 10.5255 14.6165 8.96783 14.6165 7.32821C14.6165 5.36977 13.8532 3.52975 12.472 2.14517C9.62771 -0.715058 4.98424 -0.715058 2.14 2.14517C-0.713332 5.00541 -0.713332 9.65101 2.14 12.5021C3.52123 13.8867 5.35681 14.6519 7.31052 14.6519C8.96436 14.6519 10.5364 14.0962 11.8086 13.0942L14.4438 15.7358C14.6256 15.918 14.8528 16 15.089 16C15.3253 16 15.5525 15.9089 15.7342 15.7358C16.0886 15.3806 16.0886 14.8067 15.7342 14.4515L15.7251 14.4424ZM3.42127 11.2178C1.27673 9.06804 1.27673 5.57927 3.42127 3.43865C4.49354 2.36379 5.90203 1.82636 7.30143 1.82636C8.70084 1.82636 10.1093 2.36379 11.1816 3.43865C12.2539 4.51352 12.79 5.86166 12.79 7.32821C12.79 8.79476 12.2175 10.1793 11.1816 11.2178C10.1457 12.2562 8.76444 12.8301 7.30143 12.8301C5.83842 12.8301 4.45719 12.2562 3.42127 11.2178V11.2178Z" fill="white"/>
</svg>
