<svg width="13" height="15" viewBox="0 0 13 15" fill="none" xmlns="http://www.w3.org/2000/svg">
<path d="M6.40039 0.200195C6.53928 0.200196 6.66476 0.235967 6.77539 0.28418L6.90039 0.331055C6.98376 0.366865 7.06646 0.412845 7.14355 0.470703L7.25391 0.566406L12.3154 5.63867L12.3223 5.64648C12.6927 6.01682 12.6928 6.61507 12.3223 6.98535C11.975 7.33233 11.4271 7.35431 11.0547 7.05078L10.9824 6.98535L7.34863 3.34668L7.3125 13.4014C7.31198 13.9222 6.89427 14.3494 6.36328 14.3496C5.83178 14.3496 5.41309 13.9218 5.41309 13.4004V13.3994L5.44824 3.35059L1.82617 6.98535L1.82227 6.98926C1.63648 7.16563 1.40009 7.26164 1.15234 7.26172C0.904624 7.26172 0.668239 7.1655 0.482422 6.98926L0.478516 6.98535C0.10798 6.61507 0.108067 6.01682 0.478516 5.64648L5.53906 0.574219V0.573242C5.67873 0.433703 5.83703 0.346335 6.00781 0.291992C6.12263 0.239748 6.25409 0.200195 6.40039 0.200195Z" fill="#212121" stroke="#212121" stroke-width="0.4"/>
</svg>
