<svg width="26" height="26" viewBox="0 0 26 26" fill="none" xmlns="http://www.w3.org/2000/svg">
<path d="M24.2038 11.4792C24.2654 12.4405 24.2654 13.4361 24.2038 14.3974C23.8884 19.3095 20.0566 23.2224 15.2462 23.5442C13.605 23.6541 11.8916 23.6539 10.2538 23.5442C9.6898 23.5065 9.07506 23.371 8.54561 23.1515C7.95653 22.9072 7.66194 22.785 7.51225 22.8035C7.36256 22.8221 7.14536 22.9834 6.71098 23.3058C5.94508 23.8745 4.98022 24.283 3.54934 24.2479C2.8258 24.2302 2.46403 24.2213 2.30206 23.9433C2.14011 23.6652 2.34182 23.2804 2.74524 22.5106C3.30475 21.443 3.65926 20.2209 3.12209 19.2416C2.19694 17.8429 1.41111 16.1864 1.29627 14.3974C1.23458 13.4361 1.23458 12.4405 1.29627 11.4792C1.61157 6.56707 5.44335 2.65426 10.2538 2.33229C11.6366 2.23974 11.9234 2.22518 13.325 2.289" stroke="#9D9D9D" stroke-width="2.5" stroke-linecap="round" stroke-linejoin="round"/>
<path d="M24.25 5.25C24.25 7.45914 22.4591 9.25 20.25 9.25C18.0409 9.25 16.25 7.45914 16.25 5.25C16.25 3.04086 18.0409 1.25 20.25 1.25C22.4591 1.25 24.25 3.04086 24.25 5.25Z" stroke="#9D9D9D" stroke-width="2.5"/>
</svg>
