<svg width="27" height="27" viewBox="0 0 27 27" fill="none" xmlns="http://www.w3.org/2000/svg">
<path d="M3.55361 21.4439C3.94413 21.0533 3.94413 20.4202 3.55361 20.0296C3.16308 19.6391 2.52992 19.6391 2.13939 20.0296L2.8465 20.7368L3.55361 21.4439ZM5.12427 25.2923L5.83138 25.9994L5.83138 25.9994L5.12427 25.2923ZM6.97026 24.8605C7.36079 24.47 7.36079 23.8368 6.97026 23.4463C6.57974 23.0558 5.94657 23.0558 5.55605 23.4463L6.26316 24.1534L6.97026 24.8605ZM2.8465 20.7368L2.13939 20.0296L1.00051 21.1685L1.70761 21.8756L2.41472 22.5827L3.55361 21.4439L2.8465 20.7368ZM5.12427 25.2923L5.83138 25.9994L6.97026 24.8605L6.26316 24.1534L5.55605 23.4463L4.41716 24.5852L5.12427 25.2923ZM1.70761 25.2923L1.00051 25.9994C2.33452 27.3334 4.49737 27.3334 5.83138 25.9994L5.12427 25.2923L4.41716 24.5852C3.8642 25.1382 2.96768 25.1382 2.41472 24.5852L1.70761 25.2923ZM1.70761 21.8756L1.00051 21.1685C-0.333502 22.5025 -0.333502 24.6654 1.00051 25.9994L1.70761 25.2923L2.41472 24.5852C1.86176 24.0322 1.86176 23.1357 2.41472 22.5827L1.70761 21.8756Z" fill="#9D9D9D"/>
<path d="M20.0312 2.13939C19.6407 2.52992 19.6407 3.16308 20.0312 3.55361C20.4217 3.94413 21.0549 3.94413 21.4454 3.55361L20.7383 2.8465L20.0312 2.13939ZM21.8772 1.70761L21.1701 1.00051L21.8772 1.70761ZM25.2938 5.12427L26.0009 5.83138L26.0009 5.83138L25.2938 5.12427ZM23.4478 5.55605C23.0573 5.94657 23.0573 6.57974 23.4478 6.97026C23.8384 7.36079 24.4715 7.36079 24.862 6.97026L24.1549 6.26316L23.4478 5.55605ZM20.7383 2.8465L21.4454 3.55361L22.5843 2.41472L21.8772 1.70761L21.1701 1.00051L20.0312 2.13939L20.7383 2.8465ZM25.2938 5.12427L24.5867 4.41716L23.4478 5.55605L24.1549 6.26316L24.862 6.97026L26.0009 5.83138L25.2938 5.12427ZM25.2938 1.70761L24.5867 2.41472C25.1397 2.96768 25.1397 3.8642 24.5867 4.41716L25.2938 5.12427L26.0009 5.83138C27.3349 4.49737 27.3349 2.33452 26.0009 1.00051L25.2938 1.70761ZM21.8772 1.70761L22.5843 2.41472C23.1372 1.86176 24.0338 1.86176 24.5867 2.41472L25.2938 1.70761L26.0009 1.00051C24.6669 -0.333502 22.5041 -0.333502 21.1701 1.00051L21.8772 1.70761Z" fill="#9D9D9D"/>
<path d="M7.90954 15.8026C7.90954 15.8026 9.10094 14.1951 9.88322 13.8289C12.2449 12.7235 12.7252 12.2432 13.8306 9.88158C14.1968 9.09929 15.8043 7.90789 15.8043 7.90789M11.199 19.0921C11.199 19.0921 12.8065 17.9007 13.1727 17.1184C14.2781 14.7568 14.7584 14.2765 17.1201 13.171C17.9024 12.8049 19.0938 11.1974 19.0938 11.1974" stroke="#9D9D9D" stroke-width="2.3" stroke-linecap="round" stroke-linejoin="round"/>
<path d="M20.0789 11.2955L19.3718 12.0026V12.0026L20.0789 11.2955ZM15.7045 6.92105L16.4116 6.21394L15.7045 6.92105ZM20.0789 2.5466L20.7861 1.83949H20.7861L20.0789 2.5466ZM24.4534 6.92105L23.7463 7.62816H23.7463L24.4534 6.92105ZM17.8917 0.999997V-2.86102e-06H17.8917L17.8917 0.999997ZM14.1579 4.73382H15.1579V4.73382H14.1579ZM22.2662 12.8421L22.2662 13.8421H22.2662L22.2662 12.8421ZM26 9.10828L27 9.10828V9.10828L26 9.10828ZM20.0789 11.2955L20.7861 10.5884L16.4116 6.21394L15.7045 6.92105L14.9974 7.62816L19.3718 12.0026L20.0789 11.2955ZM20.0789 2.5466L19.3718 3.25371L23.7463 7.62816L24.4534 6.92105L25.1605 6.21394L20.7861 1.83949L20.0789 2.5466ZM15.7045 2.5466L16.4116 3.25371C16.9471 2.71818 17.2791 2.38917 17.5511 2.18167C17.8 1.99177 17.878 2 17.8917 2V0.999997L17.8917 -2.86102e-06C17.2649 -1.90735e-06 16.7647 0.265991 16.3379 0.591626C15.9342 0.899654 15.4929 1.34395 14.9974 1.83949L15.7045 2.5466ZM20.0789 2.5466L20.7861 1.83949C20.2905 1.34395 19.8492 0.899654 19.4455 0.591626C19.0187 0.265991 18.5186 -1.90735e-06 17.8917 -2.86102e-06V0.999997V2C17.9055 2 17.9834 1.99177 18.2323 2.18167C18.5043 2.38917 18.8363 2.71818 19.3718 3.25371L20.0789 2.5466ZM15.7045 6.92105L16.4116 6.21394C15.8761 5.67842 15.5471 5.34641 15.3396 5.07444C15.1497 4.82555 15.1579 4.74758 15.1579 4.73382H14.1579H13.1579C13.1579 5.36069 13.4239 5.86081 13.7495 6.2876C14.0576 6.69132 14.5018 7.13261 14.9974 7.62816L15.7045 6.92105ZM15.7045 2.5466L14.9974 1.83949C14.5018 2.33504 14.0576 2.77633 13.7495 3.18005C13.4239 3.60684 13.1579 4.10696 13.1579 4.73383L14.1579 4.73382H15.1579C15.1579 4.72007 15.1497 4.6421 15.3396 4.39321C15.5471 4.12124 15.8761 3.78923 16.4116 3.25371L15.7045 2.5466ZM24.4534 11.2955L23.7463 10.5884C23.2108 11.1239 22.8788 11.4529 22.6068 11.6604C22.3579 11.8503 22.2799 11.8421 22.2662 11.8421L22.2662 12.8421L22.2662 13.8421C22.893 13.8421 23.3932 13.5761 23.82 13.2505C24.2237 12.9424 24.665 12.4982 25.1605 12.0026L24.4534 11.2955ZM20.0789 11.2955L19.3718 12.0026C19.8674 12.4982 20.3087 12.9424 20.7124 13.2505C21.1392 13.5761 21.6393 13.8421 22.2662 13.8421L22.2662 12.8421L22.2662 11.8421C22.2524 11.8421 22.1745 11.8503 21.9256 11.6604C21.6536 11.4529 21.3216 11.1239 20.7861 10.5884L20.0789 11.2955ZM24.4534 11.2955L25.1605 12.0026C25.656 11.5071 26.1003 11.0658 26.4084 10.6621C26.734 10.2353 27 9.73515 27 9.10828L26 9.10828H25C25 9.12203 25.0082 9.2 24.8183 9.44889C24.6108 9.72086 24.2818 10.0529 23.7463 10.5884L24.4534 11.2955ZM24.4534 6.92105L23.7463 7.62816C24.2818 8.16368 24.6108 8.49569 24.8183 8.76766C25.0082 9.01655 25 9.09452 25 9.10828L26 9.10828L27 9.10828C27 8.48141 26.734 7.9813 26.4084 7.5545C26.1003 7.15078 25.656 6.70949 25.1605 6.21394L24.4534 6.92105Z" fill="#9D9D9D"/>
<path d="M11.2971 20.0789L12.0043 19.3718H12.0043L11.2971 20.0789ZM6.9227 15.7045L6.21559 16.4116L6.9227 15.7045ZM2.54825 20.0789L1.84114 20.7861V20.7861L2.54825 20.0789ZM6.9227 24.4534L7.62981 23.7463V23.7463L6.9227 24.4534ZM1.00165 17.8917L0.00164509 17.8917V17.8917H1.00165ZM4.73547 14.1579V15.1579V15.1579V14.1579ZM12.8438 22.2662L13.8438 22.2662V22.2662L12.8438 22.2662ZM9.10992 26L9.10992 27H9.10992L9.10992 26ZM11.2971 20.0789L12.0043 19.3718L7.6298 14.9974L6.9227 15.7045L6.21559 16.4116L10.59 20.7861L11.2971 20.0789ZM2.54825 20.0789L1.84114 20.7861L6.21559 25.1605L6.9227 24.4534L7.62981 23.7463L3.25535 19.3718L2.54825 20.0789ZM2.54825 15.7045L1.84114 14.9974C1.3456 15.4929 0.901302 15.9342 0.593274 16.3379C0.267639 16.7647 0.00164604 17.2649 0.00164509 17.8917L1.00165 17.8917H2.00165C2.00165 17.878 1.99342 17.8 2.18332 17.5511C2.39082 17.2791 2.71983 16.9471 3.25535 16.4116L2.54825 15.7045ZM2.54825 20.0789L3.25535 19.3718C2.71983 18.8363 2.39082 18.5043 2.18332 18.2323C1.99342 17.9834 2.00165 17.9055 2.00165 17.8917H1.00165H0.00164509C0.00164604 18.5186 0.267639 19.0187 0.593274 19.4455C0.901302 19.8492 1.3456 20.2905 1.84114 20.7861L2.54825 20.0789ZM6.9227 15.7045L7.6298 14.9974C7.13426 14.5018 6.69297 14.0576 6.28925 13.7495C5.86245 13.4239 5.36234 13.1579 4.73547 13.1579V14.1579V15.1579C4.74923 15.1579 4.82719 15.1497 5.07609 15.3396C5.34806 15.5471 5.68007 15.8761 6.21559 16.4116L6.9227 15.7045ZM2.54825 15.7045L3.25535 16.4116C3.79088 15.8761 4.12289 15.5471 4.39486 15.3396C4.64375 15.1497 4.72172 15.1579 4.73547 15.1579V14.1579L4.73547 13.1579C4.1086 13.1579 3.60849 13.4239 3.1817 13.7495C2.77797 14.0576 2.33668 14.5018 1.84114 14.9974L2.54825 15.7045ZM11.2971 24.4534L12.0043 25.1605C12.4998 24.665 12.9441 24.2237 13.2521 23.82C13.5778 23.3932 13.8437 22.893 13.8438 22.2662L12.8438 22.2662L11.8438 22.2662C11.8438 22.2799 11.852 22.3579 11.6621 22.6068C11.4546 22.8788 11.1256 23.2108 10.59 23.7463L11.2971 24.4534ZM11.2971 20.0789L10.59 20.7861C11.1256 21.3216 11.4546 21.6536 11.6621 21.9256C11.852 22.1745 11.8438 22.2524 11.8438 22.2662L12.8438 22.2662L13.8438 22.2662C13.8437 21.6393 13.5778 21.1392 13.2521 20.7124C12.9441 20.3087 12.4998 19.8674 12.0043 19.3718L11.2971 20.0789ZM11.2971 24.4534L10.59 23.7463C10.0545 24.2818 9.72251 24.6108 9.45054 24.8183C9.20165 25.0082 9.12368 25 9.10992 25V26L9.10992 27C9.73679 27 10.2369 26.734 10.6637 26.4084C11.0674 26.1003 11.5087 25.656 12.0043 25.1605L11.2971 24.4534ZM6.9227 24.4534L6.21559 25.1605C6.71114 25.656 7.15243 26.1003 7.55615 26.4084C7.98294 26.734 8.48305 27 9.10992 27L9.10992 26L9.10992 25C9.09617 25 9.0182 25.0082 8.76931 24.8183C8.49734 24.6108 8.16533 24.2818 7.62981 23.7463L6.9227 24.4534Z" fill="#9D9D9D"/>
</svg>
