<svg width="25" height="25" viewBox="0 0 25 25" fill="none" xmlns="http://www.w3.org/2000/svg">
<path d="M0.363854 12.3958C-0.123048 12.8852 -0.12102 13.6766 0.368384 14.1635C0.857789 14.6504 1.64924 14.6484 2.13615 14.159L1.25 13.2774L0.363854 12.3958ZM11.6229 1.34279L11.9587 0.13876V0.13876L11.6229 1.34279ZM14.2483 2.07515L14.5841 0.871119V0.871119L14.2483 2.07515ZM15.3814 2.82748L14.4104 3.61463L14.4104 3.61463L15.3814 2.82748ZM21.7079 12.603L20.5702 13.1209V13.1209L21.7079 12.603ZM8.55726 2.95253L7.63794 2.10557V2.10557L8.55726 2.95253ZM11.0188 6.46221L10.8152 5.22891L10.8152 5.22891L11.0188 6.46221ZM14.1583 7.91257L15.1498 7.15137L15.1498 7.15137L14.1583 7.91257ZM15.2339 11.8473L13.9915 11.9848V11.9848L15.2339 11.8473ZM16.06 13.9756L15.3582 15.01C15.8836 15.3664 16.5926 15.2725 17.0069 14.7916C17.4213 14.3107 17.4094 13.5955 16.9793 13.1287L16.06 13.9756ZM7.10437 14.4375C6.67653 14.9793 6.76891 15.7654 7.31071 16.1932C7.8525 16.6211 8.63855 16.5287 9.06639 15.9869L8.08538 15.2122L7.10437 14.4375ZM7.41788 4.95302L6.18646 5.16775V5.16775L7.41788 4.95302ZM23.006 18.4143L24.167 18.8775V18.8775L23.006 18.4143ZM18.34 21.3203L18.7309 22.5076V22.5076L18.34 21.3203ZM12.7571 6.33654L13.233 5.18069L13.233 5.18069L12.7571 6.33654ZM10.2749 21.4892L11.1724 22.3593L11.1724 22.3593L10.2749 21.4892ZM2.16935 20.5482C1.7016 20.0404 0.910806 20.008 0.403064 20.4758C-0.104677 20.9435 -0.137097 21.7343 0.330652 22.242L1.25 21.3951L2.16935 20.5482ZM10.4675 21.22L10.9227 20.0558C10.3521 19.8327 9.70401 20.056 9.39191 20.5831L10.4675 21.22ZM10.4298 21.2837L9.35415 20.6469L9.35415 20.6469L10.4298 21.2837ZM10.9085 13.1613L11.2905 14.3515L10.9085 13.1613ZM11.6229 1.34279L11.287 2.54682L13.9124 3.27918L14.2483 2.07515L14.5841 0.871119L11.9587 0.13876L11.6229 1.34279ZM15.3814 2.82748L14.4104 3.61463C17.2425 7.10833 19.0415 9.76197 20.5702 13.1209L21.7079 12.603L22.8456 12.0852C21.1972 8.46349 19.259 5.62592 16.3525 2.04034L15.3814 2.82748ZM15.2339 11.8473L13.9915 11.9848C14.0902 12.876 14.3825 13.9996 15.1407 14.8226L16.06 13.9756L16.9793 13.1287C16.7459 12.8753 16.5501 12.3762 16.4763 11.7097L15.2339 11.8473ZM14.1583 7.91257L13.1668 8.67377C13.3846 8.95742 13.5298 9.14678 13.6302 9.2863C13.6794 9.35457 13.7067 9.39575 13.721 9.41876C13.7376 9.44564 13.7214 9.42388 13.6996 9.36906L14.8613 8.9075L16.0229 8.44594C15.9265 8.20311 15.7697 7.97925 15.6592 7.82574C15.5308 7.64732 15.3571 7.4214 15.1498 7.15137L14.1583 7.91257ZM15.2339 11.8473L16.4763 11.7097C16.3743 10.7883 16.2965 10.0852 16.2359 9.5927C16.2058 9.34735 16.1783 9.14114 16.1528 8.98035C16.136 8.87427 16.1001 8.6402 16.0229 8.44594L14.8613 8.9075L13.6996 9.36906C13.6551 9.257 13.6565 9.20023 13.6837 9.37166C13.7022 9.4884 13.7254 9.65994 13.7546 9.8977C13.8128 10.3715 13.8887 11.0561 13.9915 11.9848L15.2339 11.8473ZM8.55726 2.95253L7.63794 2.10557C7.25245 2.52399 6.84615 2.95804 6.57725 3.38186C6.2632 3.87685 6.06363 4.46337 6.18646 5.16775L7.41788 4.95302L8.6493 4.73829C8.64887 4.73584 8.65033 4.74341 8.64988 4.75812C8.64942 4.77315 8.64723 4.78713 8.64467 4.79743C8.63982 4.81703 8.64027 4.79677 8.68822 4.72119C8.80845 4.53169 9.02783 4.28659 9.47659 3.79948L8.55726 2.95253ZM21.7079 12.603L20.5702 13.1209C21.2298 14.57 21.658 15.5202 21.8675 16.3003C22.0584 17.0107 22.0362 17.4718 21.845 17.951L23.006 18.4143L24.167 18.8775C24.6049 17.7799 24.5761 16.7468 24.2819 15.6516C24.0063 14.6259 23.4709 13.459 22.8456 12.0852L21.7079 12.603ZM18.34 21.3203L18.7309 22.5076C20.0315 22.0793 21.1748 21.7084 22.0546 21.2183C23.0154 20.683 23.7295 19.974 24.167 18.8775L23.006 18.4143L21.845 17.951C21.6533 18.4314 21.38 18.7323 20.8379 19.0343C20.2148 19.3815 19.3397 19.6751 17.9491 20.133L18.34 21.3203ZM11.0188 6.46221L11.2225 7.69552C11.728 7.61206 12.0401 7.56131 12.263 7.54068C12.369 7.53087 12.4162 7.53197 12.4275 7.53267C12.4375 7.53328 12.3757 7.5313 12.2812 7.4924L12.7571 6.33654L13.233 5.18069C12.792 4.9991 12.3355 5.02327 12.0325 5.05132C11.6993 5.08217 11.2821 5.15183 10.8152 5.22891L11.0188 6.46221ZM10.2749 21.4892L9.37749 20.6191C8.50536 21.5186 7.16394 22.0129 5.75268 21.9997C4.34167 21.9866 3.01677 21.4681 2.16935 20.5482L1.25 21.3951L0.330652 22.242C1.73242 23.7637 3.76686 24.4814 5.72947 24.4996C7.69181 24.5179 9.73825 23.8384 11.1724 22.3593L10.2749 21.4892ZM18.34 21.3203L17.9491 20.133C15.4623 20.9517 13.3914 21.021 10.9227 20.0558L10.4675 21.22L10.0124 22.3841C13.1071 23.5941 15.7847 23.4776 18.7309 22.5076L18.34 21.3203ZM10.4298 21.2837L11.5054 21.9206L11.5432 21.8568L10.4675 21.22L9.39191 20.5831L9.35415 20.6469L10.4298 21.2837ZM10.2749 21.4892L11.1724 22.3593C11.3112 22.2161 11.42 22.0648 11.5054 21.9205L10.4298 21.2837L9.35415 20.6469C9.35191 20.6507 9.35832 20.6388 9.37747 20.6191L10.2749 21.4892ZM16.06 13.9756L16.7617 12.9412C15.5339 12.1083 13.081 11.1511 10.5265 11.9711L10.9085 13.1613L11.2905 14.3515C12.8699 13.8445 14.5201 14.4414 15.3582 15.01L16.06 13.9756ZM10.9085 13.1613L10.5265 11.9711C9.30405 12.3634 8.12411 13.1462 7.10437 14.4375L8.08538 15.2122L9.06639 15.9869C9.79625 15.0626 10.568 14.5834 11.2905 14.3515L10.9085 13.1613ZM10.9085 13.1613L11.7662 12.2519C10.24 10.8125 8.08832 10.1632 6.03744 10.1852C3.98676 10.2072 1.84937 10.9026 0.363854 12.3958L1.25 13.2774L2.13615 14.159C3.05594 13.2345 4.50726 12.7018 6.06423 12.6851C7.621 12.6684 9.09592 13.1699 10.0508 14.0706L10.9085 13.1613ZM12.7571 6.33654L12.2812 7.4924C12.2556 7.48187 12.339 7.51452 12.5398 7.78028C12.6293 7.89873 12.7173 8.02866 12.8228 8.18529C12.9199 8.32922 13.0411 8.51006 13.1668 8.67378L14.1583 7.91257L15.1498 7.15137C15.0803 7.06075 15.0041 6.94844 14.8959 6.78793C14.7962 6.64013 14.6713 6.45434 14.5346 6.27337C14.283 5.9403 13.861 5.43927 13.233 5.18069L12.7571 6.33654ZM14.2483 2.07515L13.9124 3.27918C14.0914 3.32913 14.1753 3.35342 14.2318 3.37319C14.2742 3.38799 14.2487 3.38277 14.2049 3.35369C14.1625 3.3255 14.1505 3.30636 14.186 3.3452C14.2304 3.39374 14.29 3.46614 14.4104 3.61463L15.3814 2.82748L16.3525 2.04034C16.1736 1.81965 15.9272 1.49655 15.5888 1.27163C15.2441 1.04252 14.8506 0.945446 14.5841 0.871119L14.2483 2.07515ZM11.6229 1.34279L11.9587 0.13876C10.8254 -0.177386 9.9001 0.0752105 9.1519 0.604602C8.54001 1.03754 7.98612 1.72763 7.63794 2.10557L8.55726 2.95253L9.47659 3.79948C9.59875 3.66689 9.71643 3.53404 9.82209 3.41515C9.93085 3.29276 10.0277 3.18422 10.1227 3.08259C10.3155 2.87624 10.4641 2.73864 10.5959 2.64542C10.7186 2.55855 10.8078 2.52406 10.8821 2.50979C10.9542 2.49596 11.0776 2.48842 11.287 2.54682L11.6229 1.34279ZM7.41788 4.95302L6.18646 5.16775C6.43189 6.57523 7.68124 7.21432 8.53325 7.47932C9.45052 7.76462 10.488 7.81677 11.2225 7.69552L11.0188 6.46221L10.8152 5.22891C10.4748 5.28512 9.83076 5.26475 9.27573 5.09212C9.00628 5.00832 8.82718 4.90952 8.72708 4.82661C8.68086 4.78833 8.66152 4.76177 8.65496 4.75134C8.65002 4.7435 8.64985 4.74148 8.6493 4.73829L7.41788 4.95302Z" fill="white"/>
</svg>
