<svg width="9" height="10" viewBox="0 0 9 10" fill="none" xmlns="http://www.w3.org/2000/svg">
<path d="M6.25781 0.0498047C6.5458 0.0499729 6.78122 0.285228 6.78125 0.573242V0.999023C7.83243 1.02557 8.67562 1.88384 8.67578 2.94141V7.20508C8.67567 8.27935 7.80571 9.14928 6.73145 9.14941H1.99414C0.919847 9.1493 0.0499156 8.27937 0.0498047 7.20508V2.94141C0.0499687 1.88382 0.893133 1.02555 1.94434 0.999023V0.573242C1.94436 0.285211 2.17977 0.0499447 2.46777 0.0498047C2.7559 0.0498047 2.99216 0.285125 2.99219 0.573242V0.99707H5.7334V0.573242C5.73343 0.285125 5.96969 0.0498047 6.25781 0.0498047ZM2.99219 2.46777C2.99219 2.75591 2.75591 2.99219 2.46777 2.99219C2.17975 2.99205 1.94434 2.75583 1.94434 2.46777V2.0459C1.47401 2.07208 1.09684 2.46489 1.09668 2.94141V7.20508C1.09679 7.69835 1.50086 8.10243 1.99414 8.10254H6.73145C7.2247 8.1024 7.62879 7.69834 7.62891 7.20508V2.94141C7.62874 2.4649 7.25155 2.07211 6.78125 2.0459V2.46777C6.78125 2.75581 6.54581 2.99202 6.25781 2.99219C5.96967 2.99219 5.7334 2.75591 5.7334 2.46777V2.04395H2.99219V2.46777Z" fill="#A3A3A3" stroke="#A3A3A3" stroke-width="0.1"/>
<path d="M2.94141 4.32324C3.07682 4.32324 3.21503 4.37032 3.31348 4.46875C3.36082 4.5161 3.39705 4.57348 3.42285 4.63477L3.45605 4.73926C3.46262 4.77351 3.46484 4.80745 3.46484 4.84082C3.46484 4.9061 3.45439 4.97421 3.42285 5.03906C3.39701 5.10108 3.36131 5.16016 3.31348 5.20801C3.26114 5.26034 3.20303 5.29724 3.14062 5.32324C3.07873 5.349 3.01048 5.36426 2.94141 5.36426C2.80449 5.36424 2.66833 5.307 2.56934 5.20801C2.52157 5.16022 2.48579 5.10197 2.45996 5.04004C2.43415 4.97809 2.41797 4.90998 2.41797 4.84082C2.41797 4.77153 2.43374 4.70332 2.45898 4.6377L2.45996 4.63672C2.4858 4.5748 2.52157 4.51653 2.56934 4.46875C2.66777 4.37032 2.806 4.32325 2.94141 4.32324Z" fill="#A3A3A3" stroke="#A3A3A3" stroke-width="0.1"/>
<path d="M3.04297 5.74805L3.04395 5.74707L3.1377 5.77344L3.14453 5.77539L3.14355 5.77637C3.17163 5.7904 3.20302 5.80528 3.23438 5.82617H3.2334C3.26079 5.84277 3.28787 5.86404 3.31348 5.88965C3.3373 5.91352 3.35866 5.93966 3.37695 5.96777L3.42383 6.05664V6.05859C3.44888 6.12378 3.46481 6.18667 3.46484 6.26074C3.46484 6.4006 3.41258 6.53152 3.3125 6.62695L3.31348 6.62793C3.21447 6.72694 3.07834 6.78516 2.94141 6.78516C2.80449 6.78514 2.66833 6.72692 2.56934 6.62793C2.47513 6.5336 2.41797 6.4022 2.41797 6.26074C2.418 6.18669 2.43394 6.12377 2.45898 6.05859L2.45996 6.05664C2.48573 5.99496 2.5218 5.9373 2.56934 5.88965C2.58252 5.87646 2.59657 5.86374 2.61133 5.85254L2.6582 5.82324C2.68485 5.80355 2.71435 5.78784 2.73926 5.77539L2.74512 5.77246L2.74609 5.77344C2.75213 5.77142 2.75825 5.76836 2.76562 5.76562C2.7726 5.76304 2.78071 5.7605 2.78906 5.75781C2.80323 5.75328 2.82035 5.7514 2.83887 5.75V5.74805C2.90262 5.73211 2.97551 5.73316 3.04297 5.74805Z" fill="#A3A3A3" stroke="#A3A3A3" stroke-width="0.1"/>
<path d="M4.46387 4.32812L4.46484 4.32715L4.55859 4.35352L4.56543 4.35547L4.56445 4.35645L4.57031 4.3584L4.57129 4.35938H4.57227C4.57323 4.35986 4.57231 4.35988 4.57324 4.36035H4.57422C4.57536 4.36092 4.57402 4.36074 4.5752 4.36133C4.58005 4.36376 4.58118 4.36383 4.58594 4.36621L4.58691 4.36719C4.59015 4.36881 4.58563 4.36655 4.58887 4.36816L4.5918 4.36914L4.59375 4.37012L4.5957 4.37109C4.59706 4.37177 4.59491 4.37119 4.59668 4.37207C4.60055 4.374 4.60354 4.37501 4.60742 4.37695C4.61135 4.37892 4.61424 4.38085 4.61816 4.38281C4.62239 4.38493 4.61894 4.38271 4.62305 4.38477C4.62576 4.38612 4.62327 4.38536 4.62598 4.38672C4.63016 4.38881 4.62458 4.38553 4.62891 4.3877L4.62988 4.38867H4.63086C4.6318 4.38914 4.63097 4.38921 4.63184 4.38965H4.63281C4.63415 4.39032 4.63247 4.38997 4.63379 4.39062C4.63612 4.39179 4.63441 4.39045 4.63672 4.3916L4.6377 4.39258H4.63867L4.63965 4.39355L4.65039 4.39844L4.65918 4.40332L4.62793 4.44336L4.65918 4.4043C4.68258 4.42302 4.70856 4.44392 4.73438 4.46973C4.78202 4.51747 4.81895 4.5749 4.84473 4.63672H4.84375C4.87544 4.70591 4.88572 4.77435 4.88574 4.84082C4.88574 4.90604 4.87521 4.97426 4.84375 5.03906L4.84473 5.04004C4.81891 5.102 4.78215 5.16019 4.73438 5.20801C4.68204 5.26034 4.62392 5.29724 4.56152 5.32324C4.4996 5.34902 4.43141 5.36426 4.3623 5.36426C4.29318 5.36425 4.22502 5.34904 4.16309 5.32324C4.10069 5.29724 4.04257 5.26034 3.99023 5.20801C3.94249 5.1602 3.90667 5.10198 3.88086 5.04004C3.85506 4.9781 3.83887 4.90997 3.83887 4.84082C3.8389 4.7717 3.85473 4.70414 3.87988 4.63867L3.88086 4.63672C3.90662 4.57504 3.9427 4.51738 3.99023 4.46973L3.99219 4.46777C4.04182 4.42311 4.09912 4.38116 4.16309 4.35449L4.16406 4.35352C4.25718 4.3173 4.36055 4.30803 4.46387 4.32812Z" fill="#A3A3A3" stroke="#A3A3A3" stroke-width="0.1"/>
<path d="M4.16309 5.77539C4.28904 5.72291 4.43556 5.72294 4.56152 5.77539L4.56055 5.77637C4.62969 5.80309 4.68807 5.84432 4.73438 5.89062C4.78172 5.93804 4.81798 5.99529 4.84375 6.05664L4.87695 6.16016C4.88355 6.19441 4.88572 6.22835 4.88574 6.26172C4.88574 6.32818 4.87533 6.39674 4.84863 6.46094L4.84766 6.46484C4.81795 6.52423 4.78196 6.58124 4.73438 6.62891C4.63556 6.72772 4.50424 6.78613 4.3623 6.78613C4.29316 6.78612 4.22503 6.76995 4.16309 6.74414C4.1007 6.71814 4.04256 6.68123 3.99023 6.62891C3.94255 6.58112 3.90665 6.52283 3.88086 6.46094C3.85511 6.39905 3.83887 6.33079 3.83887 6.26172C3.83893 6.18769 3.85482 6.12475 3.87988 6.05957L3.88086 6.05859C3.90666 5.99668 3.94252 5.93842 3.99023 5.89062L3.99219 5.88867L4.07227 5.8252C4.10071 5.80579 4.13106 5.78873 4.16309 5.77539Z" fill="#A3A3A3" stroke="#A3A3A3" stroke-width="0.1"/>
<path d="M5.41211 4.46875C5.55896 4.3219 5.78954 4.27492 5.9834 4.35352L5.98242 4.35449C6.05163 4.38121 6.10991 4.42241 6.15625 4.46875C6.2036 4.5161 6.23983 4.57348 6.26562 4.63477L6.29883 4.73926C6.30539 4.77351 6.30762 4.80745 6.30762 4.84082C6.30762 4.9061 6.29716 4.97421 6.26562 5.03906C6.23979 5.10108 6.20408 5.16016 6.15625 5.20801C6.10395 5.26031 6.04575 5.29627 5.9834 5.32227C5.92144 5.34808 5.85334 5.36426 5.78418 5.36426C5.71504 5.36425 5.64691 5.34808 5.58496 5.32227C5.52264 5.29627 5.46439 5.26028 5.41211 5.20801C5.36434 5.16022 5.32856 5.10197 5.30273 5.04004C5.27692 4.97809 5.26075 4.90998 5.26074 4.84082C5.26074 4.77153 5.27652 4.70332 5.30176 4.6377L5.30273 4.63672C5.32857 4.5748 5.36434 4.51653 5.41211 4.46875Z" fill="#A3A3A3" stroke="#A3A3A3" stroke-width="0.1"/>
<path d="M5.88574 5.74805L5.88672 5.74707L5.98047 5.77344L5.9873 5.77539L5.98633 5.77637C6.0144 5.7904 6.0458 5.80528 6.07715 5.82617H6.07617C6.10357 5.84277 6.13064 5.86404 6.15625 5.88965C6.18008 5.91352 6.20144 5.93966 6.21973 5.96777L6.2666 6.05664V6.05859C6.29166 6.12378 6.30758 6.18667 6.30762 6.26074C6.30762 6.4006 6.25536 6.53152 6.15527 6.62695L6.15625 6.62793C6.05724 6.72694 5.92111 6.78516 5.78418 6.78516C5.64726 6.78514 5.5111 6.72692 5.41211 6.62793C5.3179 6.5336 5.26074 6.4022 5.26074 6.26074C5.26078 6.18669 5.27671 6.12377 5.30176 6.05859L5.30273 6.05664C5.3285 5.99496 5.36457 5.9373 5.41211 5.88965C5.42529 5.87646 5.43934 5.86374 5.4541 5.85254L5.50098 5.82324C5.52762 5.80355 5.55713 5.78784 5.58203 5.77539L5.58789 5.77246L5.58887 5.77344C5.5949 5.77142 5.60103 5.76836 5.6084 5.76562C5.61538 5.76304 5.62349 5.7605 5.63184 5.75781C5.646 5.75328 5.66312 5.7514 5.68164 5.75V5.74805C5.7454 5.73211 5.81828 5.73316 5.88574 5.74805Z" fill="#A3A3A3" stroke="#A3A3A3" stroke-width="0.1"/>
</svg>
