<svg width="12" height="15" viewBox="0 0 12 15" fill="none" xmlns="http://www.w3.org/2000/svg">
<path d="M11.2061 5.21094C11.5314 5.54215 11.5314 6.077 11.2061 6.4082C10.8996 6.72008 10.4146 6.73963 10.0859 6.4668L10.0225 6.4082L6.63672 2.95508V13.6543L6.62695 13.6641C6.59457 14.1 6.23398 14.4502 5.79199 14.4502C5.32877 14.4502 4.95531 14.0655 4.95508 13.6006V2.96191L1.5752 6.41504C1.2484 6.74751 0.719423 6.74743 0.392578 6.41504L0.389648 6.41211C0.23385 6.24519 0.149522 6.03414 0.149414 5.81348C0.149414 5.59266 0.233749 5.3809 0.389648 5.21387L0.391602 5.21094L5.03223 0.474609C5.22125 0.282253 5.46849 0.187153 5.71191 0.166992C5.71627 0.165439 5.72157 0.162962 5.72754 0.161133L5.79883 0.149414L5.85547 0.158203C5.86534 0.161031 5.87304 0.16403 5.87793 0.166016C6.12391 0.184696 6.37433 0.280204 6.56543 0.474609H6.56641L11.2061 5.21094Z" fill="black" stroke="black" stroke-width="0.3"/>
</svg>
