<svg width="34" height="20" viewBox="0 0 34 20" fill="none" xmlns="http://www.w3.org/2000/svg">
<rect x="1.25" y="1.25" width="31.5" height="17.05" rx="4.75" stroke="#9D9D9D" stroke-width="2.5"/>
<path d="M17.0261 16.15C16.7898 16.15 16.5901 16.0608 16.4272 15.8824C16.2642 15.7041 16.1827 15.4811 16.1827 15.2135V14.2235L16.5494 14.5847C16.0034 14.5579 15.5308 14.4821 15.1315 14.3573C14.7323 14.2324 14.4063 14.1075 14.1537 13.9827C13.9419 13.8756 13.7911 13.724 13.7015 13.5278C13.62 13.3316 13.5874 13.1309 13.6037 12.9257C13.6281 12.7206 13.6974 12.5333 13.8115 12.3638C13.9256 12.1944 14.0722 12.0829 14.2515 12.0294C14.4389 11.9669 14.6549 11.9937 14.8993 12.1096C15.0623 12.2077 15.3067 12.3103 15.6327 12.4173C15.9668 12.5154 16.3783 12.5645 16.8672 12.5645C17.2094 12.5645 17.4783 12.5288 17.6739 12.4575C17.8776 12.3861 18.0202 12.2925 18.1017 12.1765C18.1913 12.0516 18.2362 11.9179 18.2362 11.7752C18.2362 11.6414 18.2036 11.5299 18.1384 11.4407C18.0813 11.3426 17.9836 11.2578 17.845 11.1865C17.7065 11.1062 17.515 11.0349 17.2706 10.9724L15.8894 10.6513C15.1315 10.464 14.5652 10.1519 14.1904 9.71482C13.8237 9.26886 13.6404 8.69357 13.6404 7.98895C13.6404 7.4538 13.7585 6.97662 13.9948 6.55742C14.2393 6.1293 14.5774 5.78145 15.0093 5.51388C15.4493 5.2463 15.9627 5.07683 16.5494 5.00548L16.1827 5.23292V4.33654C16.1827 4.06896 16.2642 3.84598 16.4272 3.6676C16.5901 3.48922 16.7898 3.40002 17.0261 3.40002C17.2705 3.40002 17.4743 3.48922 17.6372 3.6676C17.8002 3.84598 17.8817 4.06896 17.8817 4.33654V5.23292L17.515 4.97872C17.8247 4.98764 18.1587 5.04562 18.5173 5.15265C18.8758 5.25076 19.1895 5.38901 19.4584 5.56739C19.6459 5.67442 19.7762 5.82159 19.8496 6.00889C19.9311 6.19619 19.9596 6.38796 19.9351 6.58418C19.9188 6.77148 19.8537 6.94095 19.7396 7.09257C19.6336 7.2442 19.487 7.34677 19.2995 7.40029C19.1203 7.44488 18.9043 7.40921 18.6517 7.29326C18.4643 7.20406 18.2525 7.13271 18.0161 7.0792C17.788 7.01676 17.4946 6.98554 17.1361 6.98554C16.7042 6.98554 16.3701 7.07028 16.1338 7.23974C15.9057 7.40921 15.7916 7.62773 15.7916 7.8953C15.7916 8.07369 15.8568 8.22531 15.9871 8.35018C16.1257 8.46613 16.3742 8.5687 16.7327 8.65789L18.1262 8.99236C18.9003 9.17967 19.4707 9.49184 19.8374 9.92888C20.2122 10.357 20.3996 10.9145 20.3996 11.6012C20.3996 12.1364 20.2815 12.6091 20.0451 13.0194C19.8088 13.4297 19.4788 13.7641 19.0551 14.0228C18.6395 14.2815 18.1547 14.4509 17.6006 14.5312L17.8817 14.2101V15.2135C17.8817 15.4811 17.8002 15.7041 17.6372 15.8824C17.4824 16.0608 17.2787 16.15 17.0261 16.15Z" fill="#9D9D9D"/>
<mask id="mask0_2562_2225" style="mask-type:alpha" maskUnits="userSpaceOnUse" x="0" y="0" width="34" height="20">
<rect x="1.25" y="1.25" width="31.5" height="17.05" rx="4.75" fill="#D9D9D9" stroke="#9D9D9D" stroke-width="2.5"/>
</mask>
<g mask="url(#mask0_2562_2225)">
<circle cx="31.8746" cy="17.425" r="4.275" stroke="#9D9D9D" stroke-width="2.5"/>
<circle cx="5.525" cy="5.525" r="4.275" transform="matrix(1 0 0 -1 26.3496 7.65002)" stroke="#9D9D9D" stroke-width="2.5"/>
<circle cx="5.525" cy="5.525" r="4.275" transform="matrix(-1 0 0 1 7.65039 11.9)" stroke="#9D9D9D" stroke-width="2.5"/>
<circle cx="2.12539" cy="2.12502" r="4.275" transform="rotate(180 2.12539 2.12502)" stroke="#9D9D9D" stroke-width="2.5"/>
</g>
</svg>
