<svg width="16" height="20" viewBox="0 0 16 20" fill="none" xmlns="http://www.w3.org/2000/svg">
<path d="M14.4325 2.88453H11.4904C11.4329 1.27453 10.12 0 8.50999 0H6.82333C5.21333 0 3.90999 1.28417 3.84291 2.875H0.900821C0.392904 2.91333 0 3.32542 0 3.83333C0 4.34125 0.43125 4.79167 0.958333 4.79167H1.00624L1.59082 15.525C1.59082 17.5375 3.21999 19.1667 5.23249 19.1667H10.1008C12.1037 19.1667 13.7425 17.5279 13.7425 15.5729L14.3271 4.79167H14.375C14.9021 4.79167 15.3333 4.36042 15.3333 3.83333C15.3333 3.30625 14.9308 2.91328 14.4325 2.88453V2.88453ZM6.83291 1.91667H8.51958C9.06583 1.91667 9.50666 2.33833 9.57374 2.875H5.78833C5.84583 2.33833 6.28667 1.91667 6.8425 1.91667H6.83291ZM11.8354 15.525C11.8354 16.4737 11.0592 17.25 10.1104 17.25H5.24208C4.29333 17.25 3.51708 16.4737 3.51708 15.477L2.94208 4.79167H12.42L11.845 15.525H11.8354Z" fill="white"/>
<path d="M5.73079 6.68909C5.20371 6.68909 4.77246 7.12034 4.77246 7.64742V14.4037C4.77246 14.9307 5.20371 15.362 5.73079 15.362C6.25788 15.362 6.68913 14.9307 6.68913 14.4037V7.64742C6.68913 7.12034 6.25788 6.68909 5.73079 6.68909Z" fill="white"/>
<path d="M9.60286 6.68909C9.07578 6.68909 8.64453 7.12034 8.64453 7.64742V10.5416C8.64453 11.0687 9.07578 11.4999 9.60286 11.4999C10.1299 11.4999 10.5612 11.0687 10.5612 10.5416V7.64742C10.5612 7.12034 10.1299 6.68909 9.60286 6.68909Z" fill="white"/>
</svg>
