<svg width="17" height="17" viewBox="0 0 17 17" fill="none" xmlns="http://www.w3.org/2000/svg">
<g clip-path="url(#clip0_2570_2408)">
<rect x="17" y="17" width="17" height="17" rx="8.5" transform="rotate(-180 17 17)" fill="#88C29A"/>
<path d="M6.5625 7.11096C6.59766 7.02893 6.62403 6.97913 6.6416 6.96155C6.66504 6.93811 6.67676 6.90295 6.67676 6.85608C6.73535 6.73889 6.78516 6.61877 6.82617 6.49573C6.87305 6.36682 6.92578 6.24084 6.98438 6.1178C7.03711 5.98889 7.08106 5.86292 7.11621 5.73987C7.15723 5.61096 7.2041 5.48206 7.25684 5.35315C7.2627 5.32971 7.27442 5.29456 7.29199 5.24768C7.30957 5.20081 7.32715 5.151 7.34473 5.09827C7.36231 5.04553 7.37988 4.99866 7.39746 4.95764C7.41504 4.91077 7.42969 4.87854 7.44141 4.86096C7.45313 4.84338 7.46192 4.82874 7.46778 4.81702C7.47949 4.79944 7.48828 4.78186 7.49414 4.76428C7.5293 4.76428 7.55274 4.76721 7.56446 4.77307C7.57617 4.77307 7.59082 4.77307 7.6084 4.77307C7.64942 4.77307 7.67285 4.77893 7.67871 4.79065C7.69043 4.79651 7.70508 4.8053 7.72266 4.81702C7.78711 4.82288 7.83692 4.83167 7.87207 4.84338C7.91309 4.8551 7.94824 4.87561 7.97754 4.90491C8.05957 4.95764 8.12403 4.98987 8.1709 5.00159C8.22363 5.01331 8.26465 5.03967 8.29395 5.08069C8.41699 5.09241 8.47852 5.15686 8.47852 5.27405C8.44922 5.35608 8.41406 5.43811 8.37305 5.52014C8.33789 5.59631 8.30567 5.67249 8.27637 5.74866C8.22363 5.91858 8.16504 6.08264 8.10059 6.24084C8.03613 6.39319 7.96582 6.54553 7.88965 6.69788C7.83692 6.81506 7.78418 6.93518 7.73145 7.05823C7.68457 7.18127 7.63184 7.30139 7.57324 7.41858C7.54395 7.51819 7.51465 7.60022 7.48535 7.66467C7.4502 7.74084 7.41211 7.81702 7.3711 7.89319C7.33008 7.96936 7.29492 8.04846 7.26563 8.13049C7.23633 8.15979 7.21289 8.19495 7.19531 8.23596C7.17774 8.27112 7.15723 8.30627 7.13379 8.34143C7.14551 8.39417 7.16602 8.44397 7.19531 8.49084C7.23047 8.53186 7.2627 8.57874 7.29199 8.63147C7.29785 8.67249 7.30957 8.7135 7.32715 8.75452C7.34473 8.78967 7.36231 8.82776 7.37988 8.86877C7.4502 8.99768 7.51758 9.14417 7.58203 9.30823C7.65235 9.46643 7.72266 9.60413 7.79297 9.72131C7.86914 9.8385 7.92481 9.94397 7.95996 10.0377C8.00098 10.1315 8.05078 10.2369 8.10938 10.3541C8.1211 10.3834 8.13574 10.4098 8.15332 10.4332C8.1709 10.4508 8.18848 10.4742 8.20606 10.5035L8.28516 10.6617C8.3086 10.7145 8.33496 10.7672 8.36426 10.8199C8.39942 10.8668 8.43164 10.9166 8.46094 10.9694C8.46094 10.9987 8.46387 11.025 8.46973 11.0485C8.47559 11.066 8.47852 11.0895 8.47852 11.1188C8.4375 11.1891 8.40821 11.2242 8.39063 11.2242C8.37891 11.2242 8.36426 11.2301 8.34668 11.2418C8.24121 11.2828 8.17383 11.359 8.14453 11.4703C8.11524 11.4821 8.08594 11.4908 8.05664 11.4967C8.02735 11.5026 8.0127 11.526 8.0127 11.567C7.94824 11.608 7.89258 11.611 7.84571 11.5758C7.81641 11.6051 7.79004 11.6373 7.7666 11.6725C7.74317 11.7135 7.71094 11.7428 7.66992 11.7604C7.62305 11.7311 7.58789 11.6959 7.56446 11.6549C7.54688 11.6139 7.52051 11.5758 7.48535 11.5406C7.47949 11.4996 7.46778 11.4645 7.4502 11.4352C7.43262 11.4059 7.4209 11.3737 7.41504 11.3385C7.40332 11.3209 7.38574 11.2887 7.36231 11.2418C7.34473 11.1949 7.32422 11.1481 7.30078 11.1012C7.27735 11.0543 7.25391 11.0133 7.23047 10.9781C7.20703 10.9371 7.18946 10.9108 7.17774 10.899C7.13086 10.8053 7.08985 10.7115 7.05469 10.6178C7.02539 10.524 6.98731 10.4274 6.94043 10.3278C6.87012 10.1696 6.79688 10.0143 6.72071 9.86194C6.65039 9.70374 6.58301 9.54846 6.51856 9.39612C6.48926 9.40198 6.45703 9.4342 6.42188 9.4928C6.38672 9.54553 6.35449 9.60706 6.3252 9.67737C6.2959 9.74768 6.26953 9.81799 6.2461 9.88831C6.22266 9.95276 6.20801 10.0026 6.20215 10.0377C6.17285 10.0787 6.15235 10.1198 6.14063 10.1608C6.12891 10.1959 6.1084 10.2281 6.0791 10.2574C6.04981 10.3571 6.01465 10.4537 5.97363 10.5475C5.93262 10.6354 5.88867 10.7262 5.8418 10.8199C5.8418 10.8375 5.83887 10.8551 5.83301 10.8727C5.82715 10.8844 5.82422 10.899 5.82422 10.9166C5.75977 11.0221 5.69531 11.1305 5.63086 11.2418C5.56641 11.3473 5.50781 11.4586 5.45508 11.5758C5.4375 11.5934 5.41699 11.611 5.39356 11.6285C5.37012 11.6461 5.34375 11.6549 5.31446 11.6549C5.27344 11.6549 5.23535 11.6373 5.2002 11.6022C5.16504 11.5729 5.13281 11.5494 5.10352 11.5319C4.99805 11.4908 4.92774 11.4469 4.89258 11.4C4.86328 11.359 4.80762 11.3414 4.72559 11.3473C4.69629 11.3063 4.67578 11.2887 4.66406 11.2946C4.65235 11.3004 4.6377 11.3033 4.62012 11.3033C4.57324 11.2858 4.54395 11.2653 4.53223 11.2418C4.52051 11.2125 4.50879 11.1891 4.49707 11.1715C4.49707 11.1129 4.49414 11.0748 4.48828 11.0573C4.49414 11.0338 4.5 11.0133 4.50586 10.9957C4.51758 10.9781 4.52637 10.9576 4.53223 10.9342C4.59668 10.8522 4.64356 10.7672 4.67285 10.6793C4.70801 10.5914 4.75781 10.5094 4.82227 10.4332C4.83985 10.3805 4.86328 10.3307 4.89258 10.2838C4.92188 10.2369 4.94238 10.1842 4.9541 10.1256C4.99512 10.0729 5.03028 10.0201 5.05957 9.96741C5.08887 9.91467 5.11231 9.85608 5.12988 9.79163C5.1416 9.77991 5.15039 9.76526 5.15625 9.74768C5.16211 9.7301 5.1709 9.71545 5.18262 9.70374C5.2002 9.651 5.22071 9.6012 5.24414 9.55432C5.26758 9.50159 5.28516 9.44885 5.29688 9.39612C5.3086 9.39026 5.33203 9.3551 5.36719 9.29065C5.40235 9.22034 5.4375 9.14709 5.47266 9.07092C5.51367 8.98889 5.54883 8.91272 5.57813 8.84241C5.61328 8.76624 5.63672 8.71643 5.64844 8.69299C5.68946 8.61096 5.73047 8.54065 5.77149 8.48206C5.8125 8.42346 5.84766 8.34729 5.87696 8.25354C5.85938 8.21838 5.84473 8.18323 5.83301 8.14807C5.82715 8.11292 5.80957 8.08069 5.78028 8.05139C5.78028 7.98694 5.75977 7.92542 5.71875 7.86682C5.67774 7.80237 5.65137 7.73792 5.63965 7.67346C5.59278 7.59729 5.55469 7.51526 5.52539 7.42737C5.50196 7.33362 5.47559 7.24573 5.44629 7.1637C5.44043 7.14026 5.43164 7.11682 5.41992 7.09338C5.40821 7.06995 5.39649 7.04651 5.38477 7.02307C5.33203 6.92346 5.28223 6.82971 5.23535 6.74182C5.18848 6.64807 5.13867 6.55432 5.08594 6.46057C5.05664 6.40198 5.01856 6.33459 4.97168 6.25842C4.92481 6.17639 4.88672 6.10608 4.85742 6.04749C4.81055 5.93616 4.7666 5.82776 4.72559 5.72229C4.68457 5.61096 4.64063 5.49963 4.59375 5.38831C4.59375 5.34143 4.58496 5.29163 4.56738 5.23889C4.54981 5.18616 4.54102 5.13635 4.54102 5.08948C4.57617 5.05432 4.60254 5.03088 4.62012 5.01917C4.64356 5.00745 4.66113 4.9928 4.67285 4.97522C4.71973 4.97522 4.76367 4.95471 4.80469 4.9137C4.86328 4.90784 4.92188 4.89905 4.98047 4.88733C5.03906 4.86975 5.09473 4.84338 5.14746 4.80823C5.20606 4.80823 5.25293 4.79944 5.28809 4.78186C5.32324 4.75842 5.36426 4.7467 5.41113 4.7467C5.45801 4.75842 5.48731 4.77014 5.49903 4.78186C5.51074 4.79358 5.52539 4.8053 5.54297 4.81702C5.71289 5.19788 5.88281 5.57874 6.05274 5.95959C6.22266 6.34045 6.39258 6.72424 6.5625 7.11096ZM9.90235 5.01038C9.92578 5.00452 9.94629 4.99573 9.96387 4.98401C9.98145 4.97229 10.002 4.96643 10.0254 4.96643C10.043 4.97229 10.0547 4.98401 10.0605 5.00159C10.0723 5.01917 10.0869 5.03381 10.1045 5.04553C10.1221 5.03381 10.1367 5.02209 10.1484 5.01038C10.166 4.99866 10.1836 4.98987 10.2012 4.98401C10.2598 5.00159 10.292 5.03088 10.2979 5.0719C10.3272 5.08362 10.3535 5.09827 10.377 5.11584C10.4004 5.12756 10.4268 5.13635 10.4561 5.14221C10.4678 5.16565 10.4824 5.18323 10.5 5.19495C10.5176 5.20667 10.5381 5.22424 10.5615 5.24768C10.6201 5.2594 10.6963 5.29163 10.79 5.34436C10.8897 5.39709 10.9688 5.43811 11.0273 5.46741C11.0859 5.4967 11.1445 5.526 11.2031 5.5553C11.2617 5.58459 11.3174 5.61682 11.3701 5.65198C11.4229 5.68127 11.4756 5.71643 11.5283 5.75745C11.5811 5.7926 11.6367 5.8219 11.6953 5.84534C11.748 5.90979 11.8154 5.95081 11.8975 5.96838C11.9795 5.98596 12.0527 6.01819 12.1172 6.06506C12.1699 6.09436 12.2197 6.12659 12.2666 6.16174C12.3135 6.19104 12.3604 6.22034 12.4072 6.24963C12.4248 6.27893 12.4453 6.30237 12.4688 6.31995C12.498 6.33752 12.5244 6.36096 12.5479 6.39026C12.665 6.45471 12.7324 6.50452 12.75 6.53967C12.7676 6.55139 12.7939 6.56897 12.8291 6.59241C12.8643 6.61584 12.8994 6.64221 12.9346 6.67151C12.9697 6.69495 13.002 6.72131 13.0313 6.75061C13.0605 6.77405 13.0781 6.79749 13.084 6.82092C13.0605 6.87366 13.0488 6.9176 13.0488 6.95276C13.0488 6.98206 13.0371 7.00842 13.0137 7.03186C13.0488 7.07874 13.0664 7.12268 13.0664 7.1637C13.0371 7.23401 12.9873 7.2926 12.917 7.33948C12.8994 7.38635 12.8701 7.42444 12.8291 7.45374C12.7939 7.47717 12.7705 7.51233 12.7588 7.5592C12.7119 7.5885 12.6826 7.61194 12.6709 7.62952C12.665 7.64709 12.6563 7.66467 12.6445 7.68225C12.5332 7.79944 12.4277 7.90198 12.3281 7.98987C12.2344 8.0719 12.1465 8.16272 12.0645 8.26233C12.0059 8.29163 11.9561 8.32971 11.915 8.37659C11.874 8.4176 11.8359 8.46448 11.8008 8.51721C11.7539 8.56409 11.707 8.61096 11.6602 8.65784C11.6191 8.69885 11.5752 8.73987 11.5283 8.78088C11.5166 8.80432 11.4961 8.82483 11.4668 8.84241C11.4434 8.85413 11.4258 8.87463 11.4141 8.90393C11.3496 8.93323 11.2969 8.97424 11.2559 9.02698C11.2148 9.07971 11.165 9.12366 11.1064 9.15881L11.0449 9.2467C11.0273 9.25842 11.001 9.27893 10.9658 9.30823C10.9365 9.33167 10.9043 9.36096 10.8691 9.39612C10.8398 9.42542 10.8135 9.45471 10.79 9.48401C10.7666 9.51331 10.752 9.53674 10.7461 9.55432C10.7285 9.56018 10.6992 9.57776 10.6582 9.60706C10.623 9.63635 10.585 9.66858 10.5439 9.70374C10.5088 9.73889 10.4736 9.77405 10.4385 9.8092C10.4092 9.84436 10.3916 9.8678 10.3857 9.87952L10.2979 9.94104C10.3037 10.0992 10.3066 10.2604 10.3066 10.4244C10.3125 10.5826 10.3154 10.7408 10.3154 10.899L10.3154 11.1979L10.2539 11.277C10.2246 11.277 10.2012 11.2711 10.1836 11.2594C10.166 11.2477 10.1455 11.2418 10.1221 11.2418C10.0986 11.2418 10.0752 11.2535 10.0518 11.277C10.0342 11.3004 10.0166 11.318 9.99903 11.3297C9.95801 11.3356 9.92285 11.3473 9.89356 11.3649C9.87012 11.3766 9.84375 11.3883 9.81446 11.4C9.7793 11.3824 9.74414 11.3737 9.70899 11.3737C9.63281 11.3912 9.59473 11.3942 9.59473 11.3824C9.60059 11.3707 9.58887 11.3649 9.55957 11.3649C9.5127 11.4117 9.4834 11.4352 9.47168 11.4352C9.44824 11.4352 9.42481 11.4381 9.40137 11.444C9.38379 11.4498 9.36328 11.4528 9.33985 11.4528C9.31641 11.4059 9.2959 11.359 9.27832 11.3121C9.2666 11.2594 9.24024 11.2096 9.19922 11.1627C9.2168 11.1041 9.21387 11.0631 9.19043 11.0397C9.22559 10.9752 9.24024 10.902 9.23438 10.8199C9.22852 10.7379 9.22559 10.6617 9.22559 10.5914C9.22559 10.5504 9.22559 10.5123 9.22559 10.4772C9.23145 10.4362 9.23438 10.3981 9.23438 10.3629C9.23438 10.2926 9.22852 10.2223 9.2168 10.152C9.20508 10.0758 9.19922 9.99963 9.19922 9.92346C9.19922 9.74768 9.20508 9.5719 9.2168 9.39612C9.22852 9.21448 9.23438 9.03577 9.23438 8.85999C9.23438 8.76038 9.22852 8.65784 9.2168 8.55237C9.21094 8.4469 9.20801 8.34436 9.20801 8.24475C9.20801 8.1803 9.21094 8.1217 9.2168 8.06897C9.22266 8.01038 9.22852 7.95471 9.23438 7.90198C9.23438 7.63245 9.23731 7.37463 9.24317 7.12854C9.25488 6.87659 9.26074 6.62756 9.26074 6.38147C9.26074 6.29944 9.25781 6.22327 9.25196 6.15295C9.25196 6.07678 9.25196 5.99768 9.25196 5.91565C9.25196 5.87463 9.25488 5.83362 9.26074 5.7926C9.2666 5.75159 9.26953 5.71057 9.26953 5.66956C9.28711 5.48792 9.2959 5.30627 9.2959 5.12463L9.28711 4.98401C9.31055 4.94885 9.34571 4.93127 9.39258 4.93127C9.45703 4.93127 9.50684 4.95178 9.54199 4.9928C9.58301 4.98694 9.6211 4.98108 9.65625 4.97522C9.69727 4.9635 9.73535 4.95764 9.77051 4.95764C9.82324 4.95764 9.86719 4.97522 9.90235 5.01038ZM10.4209 6.40784C10.4209 6.43713 10.418 6.46057 10.4121 6.47815C10.4063 6.48987 10.4004 6.50159 10.3945 6.51331C10.3945 6.53088 10.3945 6.55139 10.3945 6.57483C10.4004 6.59241 10.4033 6.61292 10.4033 6.63635C10.4033 6.77112 10.4004 6.90588 10.3945 7.04065C10.3945 7.16956 10.3945 7.29846 10.3945 7.42737L10.377 7.89319C10.377 7.92249 10.3799 7.95471 10.3857 7.98987C10.3916 8.02502 10.3945 8.05725 10.3945 8.08655C10.3945 8.11584 10.3916 8.14514 10.3857 8.17444C10.3799 8.20374 10.377 8.23303 10.377 8.26233C10.377 8.3385 10.3857 8.41467 10.4033 8.49084C10.4326 8.47913 10.4531 8.46155 10.4648 8.43811C10.4766 8.40881 10.4912 8.38538 10.5088 8.3678C10.6436 8.24475 10.7695 8.11584 10.8867 7.98108C11.0039 7.84631 11.124 7.71155 11.2471 7.57678C11.3525 7.46545 11.4434 7.37463 11.5195 7.30432C11.5957 7.23401 11.6543 7.14905 11.6953 7.04944C11.5957 6.98499 11.4932 6.92053 11.3877 6.85608C11.2822 6.78577 11.1709 6.72717 11.0537 6.6803C11.0479 6.66858 11.0303 6.65393 11.001 6.63635C10.9775 6.61877 10.9512 6.60413 10.9219 6.59241C10.8926 6.57483 10.8633 6.56018 10.834 6.54846C10.8047 6.53674 10.7842 6.53088 10.7725 6.53088C10.7197 6.48401 10.6641 6.45471 10.6055 6.44299C10.5645 6.44299 10.5293 6.43713 10.5 6.42542C10.4707 6.40784 10.4502 6.39319 10.4385 6.38147L10.4209 6.40784Z" fill="#FFF8EE"/>
</g>
<defs>
<clipPath id="clip0_2570_2408">
<rect x="17" y="17" width="17" height="17" rx="8.5" transform="rotate(-180 17 17)" fill="white"/>
</clipPath>
</defs>
</svg>
